<svg width="86" height="86" viewBox="0 0 86 86" fill="none" xmlns="http://www.w3.org/2000/svg">
<g clip-path="url(#clip0_4606_1087)">
<path d="M47.134 17.9812C45.7598 18.4593 41.7074 20.0609 37.7405 21.7224C35.7446 22.5584 33.7722 23.4096 32.175 24.1394C30.6382 24.8417 29.4612 25.4277 28.9407 25.7791C29.079 26.6654 29.6194 28.9288 30.2053 31.1316C30.5067 32.2647 30.819 33.3792 31.093 34.2771C31.3636 35.1637 31.5928 35.825 31.7346 36.0925L34.5208 38.8787C35.0303 38.7596 36.4678 38.3293 40.387 36.7859L41.345 36.4089L41.5208 36.3396L41.5159 36.5281L41.4915 37.5574C41.434 39.9446 41.3651 42.5714 41.2981 45.113C41.1853 49.4026 41.0652 53.9665 40.9963 57.7175C40.9284 61.4205 40.9117 64.3214 40.9983 65.3884L43.7346 68.1277C43.8905 68.1703 44.1632 68.2073 44.5374 68.2351C44.9297 68.2642 45.4224 68.2842 45.9856 68.2957C47.1121 68.3185 48.5161 68.3089 49.9524 68.28C52.7411 68.224 55.6462 68.0934 56.8792 67.99C57.1547 63.2581 57.2321 36.7751 57.2336 22.3728L54.4817 19.6189C54.4047 19.5591 54.2683 19.4886 54.0735 19.4109C53.8778 19.3329 53.6325 19.2508 53.3499 19.1677C52.7848 19.0017 52.0754 18.8316 51.3225 18.6726C49.8286 18.3572 48.1705 18.0871 47.134 17.9812ZM58.8518 22.0369C58.8518 22.9345 58.8504 33.9348 58.7971 45.0574C58.7705 50.6187 58.7311 56.2115 58.6721 60.5867C58.6426 62.7741 58.6076 64.6581 58.5676 66.0818C58.5278 67.5004 58.4823 68.4719 58.429 68.8279L58.3674 69.2419L58.3567 69.3181L58.2834 69.3425L57.886 69.4753C57.8046 69.5025 57.6615 69.5257 57.4817 69.5476C57.2978 69.57 57.0636 69.5918 56.7922 69.613C56.249 69.6555 55.5518 69.6961 54.8 69.7322C53.2964 69.8044 51.5693 69.8605 50.4036 69.8865C49.2423 69.9138 48.2611 69.9255 47.4329 69.9255C45.3963 69.9255 44.2629 69.8547 43.6096 69.7449C43.2828 69.6899 43.0682 69.6236 42.9182 69.5476C42.7695 69.4722 42.6886 69.389 42.6262 69.3074L39.4631 66.1443L39.4573 66.1042L39.4231 65.8806C39.36 65.4631 39.3291 64.5668 39.3215 63.3142C39.3139 62.0574 39.3292 60.4318 39.3606 58.5505C39.4233 54.7879 39.5498 49.9973 39.679 45.071C39.7347 42.9548 39.7912 40.7791 39.842 38.7332C37.4221 39.6694 36.0702 40.1292 35.2874 40.3494C34.4867 40.5746 34.2686 40.5531 34.1067 40.5281V40.5291C33.7874 40.4828 33.595 40.2759 33.4983 40.1462L30.7102 37.3572C30.4232 37.1526 30.2747 36.7991 30.178 36.573C29.695 35.4386 28.9072 32.6104 28.3323 30.3503C27.7146 27.926 27.4377 26.661 27.342 25.9666C27.2944 25.6206 27.2899 25.4048 27.3157 25.2537C27.3433 25.0923 27.405 25.0091 27.4602 24.9353L27.4641 24.9304L27.5042 24.8826L27.5071 24.8787L27.593 24.7927C27.6894 24.7042 27.8172 24.6087 27.969 24.5066C28.1732 24.3692 28.4281 24.2161 28.7258 24.0505C29.3217 23.7191 30.0941 23.3328 30.9817 22.9148C32.7572 22.0787 35.0018 21.1101 37.2385 20.1785C41.7108 18.3158 46.1626 16.5991 46.7834 16.3923L46.9182 16.3474L46.9426 16.3386L46.969 16.3406L47.1106 16.3533H47.1116C47.4591 16.3852 49.2342 16.6161 51.0833 16.9763C52.008 17.1565 52.9544 17.3693 53.7512 17.6072C54.1495 17.7261 54.5124 17.8516 54.8176 17.9832C55.0452 18.0812 55.2452 18.1841 55.4045 18.2927L55.55 18.4041L55.554 18.407L55.592 18.4421L55.5959 18.446H55.595L58.8147 21.6658L58.8518 21.7019V22.0369Z" fill="#3583DC" stroke="#3583DC" stroke-width="0.25"/>
<path d="M47.134 17.9817C45.7608 18.4593 41.7074 20.061 37.7395 21.7229C35.7434 22.5589 33.7703 23.41 32.1731 24.1399C30.6369 24.8419 29.4605 25.4272 28.9397 25.7786C29.0713 26.6233 29.5679 28.7224 30.1223 30.8274C30.6719 32.914 31.2737 34.9851 31.6184 35.8342C32.2624 35.6698 33.5305 35.2315 35.0774 34.6506C36.7091 34.0379 38.6431 33.2719 40.4651 32.5198L41.429 32.1223L41.6057 32.0491L41.6018 32.2395L41.5833 33.2834C41.519 36.68 41.4065 40.9706 41.2971 45.1184C41.0785 53.3664 40.8359 62.6167 40.9797 65.1594C41.4694 65.2302 42.3329 65.27 43.4036 65.2834C44.5461 65.2978 45.9147 65.2838 47.2942 65.2532C49.9688 65.1937 52.6786 65.0698 53.8586 64.97C54.134 60.2518 54.2115 33.9029 54.2131 19.4729C53.6093 19.2016 52.35 18.8814 50.9856 18.6038C49.5844 18.3187 48.0929 18.08 47.134 17.9817ZM55.8333 19.0198C55.8333 19.9188 55.8319 30.9185 55.7786 42.0403C55.7519 47.6016 55.7116 53.1944 55.6526 57.5696C55.6231 59.7567 55.589 61.6402 55.5491 63.0637C55.5093 64.4828 55.4637 65.4549 55.4104 65.8108L55.3489 66.2249L55.3381 66.301L55.2649 66.3254L54.8674 66.4583C54.7861 66.4854 54.6429 66.5086 54.4631 66.5305C54.2791 66.5529 54.0442 66.5747 53.7727 66.5959C53.2296 66.6384 52.533 66.679 51.7815 66.7151C50.2779 66.7873 48.5508 66.8434 47.385 66.8694C46.2237 66.8954 45.242 66.9075 44.4124 66.9075C42.2579 66.9075 41.1142 66.8275 40.4797 66.7063C40.162 66.6456 39.9618 66.5727 39.8245 66.4875C39.683 66.3998 39.6158 66.3038 39.5598 66.2239L39.469 66.092L39.4524 66.0686L39.4475 66.0403L39.4231 65.8811C39.36 65.4637 39.3291 64.5671 39.3215 63.3147C39.3139 62.0583 39.3292 60.4336 39.3606 58.553C39.4233 54.7913 39.5498 50.0014 39.679 45.0764C39.7755 41.4155 39.873 37.6457 39.9387 34.4797C39.0894 34.8231 37.8653 35.3139 36.6155 35.7952C34.2646 36.6998 32.9629 37.1391 32.2131 37.3469C31.4614 37.5553 31.2513 37.5349 31.0881 37.51V37.509C30.8083 37.4685 30.6125 37.3081 30.4729 37.1243C30.3351 36.9427 30.2447 36.7301 30.178 36.5745C29.695 35.4401 28.9072 32.6119 28.3323 30.3518C27.7146 27.9275 27.4377 26.6624 27.342 25.968C27.2944 25.6221 27.2899 25.4063 27.3157 25.2551C27.3433 25.0938 27.405 25.0106 27.4602 24.9368L27.4641 24.9319L27.5042 24.884L27.5071 24.8801L27.593 24.7942C27.6894 24.7057 27.8172 24.6102 27.969 24.5081C28.1732 24.3707 28.4281 24.2176 28.7258 24.052C29.3217 23.7206 30.0941 23.3342 30.9817 22.9163C32.7572 22.0802 35.0018 21.1115 37.2385 20.1799C41.7108 18.3173 46.1626 16.6005 46.7834 16.3938L46.9182 16.3489L46.9426 16.3401L46.969 16.342L47.1106 16.3547H47.1116C47.4591 16.3866 49.2342 16.6176 51.0833 16.9778C52.008 17.1579 52.9544 17.3708 53.7512 17.6086C54.1495 17.7275 54.5124 17.8531 54.8176 17.9846C55.1212 18.1155 55.3753 18.2557 55.55 18.4055L55.7893 18.6106L55.8333 18.6477V19.0198Z" fill="#3583DC" stroke="#3583DC" stroke-width="0.25"/>
</g>
<defs>
<clipPath id="clip0_4606_1087">
<rect width="70" height="70" fill="white" transform="translate(8 8)"/>
</clipPath>
</defs>
</svg>
