<svg width="86" height="86" viewBox="0 0 86 86" fill="none" xmlns="http://www.w3.org/2000/svg">
<g clip-path="url(#clip0_4606_1178)">
<path d="M41.6714 16.2176C47.8291 16.2177 52.8501 18.4486 55.812 22.5223C59.6058 25.2994 61.6069 29.5152 61.6069 34.7078C61.6069 37.9142 60.7132 41.0124 58.8813 44.1746C57.5215 46.5218 55.5922 48.9991 52.8813 51.8826L57.3608 51.7293L57.4146 51.7273L57.4536 51.7654L60.7212 55.0359L60.728 55.0428L60.6323 55.1238L60.728 55.0437C60.7766 55.101 60.8487 55.1888 60.9253 55.3875C61.0003 55.5821 61.0797 55.8817 61.1489 56.365C61.2874 57.332 61.3906 59.0524 61.3413 62.1756C61.3331 62.6835 61.3023 64.2171 61.2114 65.741C61.166 66.5027 61.1057 67.2639 61.0249 67.8943C60.9845 68.2095 60.939 68.4941 60.8872 68.7303C60.836 68.9637 60.7764 69.1601 60.7056 69.2928C60.528 69.6246 60.2451 69.7677 59.9897 69.7928C59.7237 69.8262 58.9675 69.8567 57.9087 69.8836C56.8451 69.9106 55.4674 69.935 53.9526 69.9559C50.923 69.9976 47.3432 70.0269 44.6265 70.0398C42.9447 70.0467 41.3304 70.0506 39.8345 70.0506C37.8603 70.0506 36.0911 70.0437 34.647 70.0301C32.2757 70.0075 31.0561 69.9755 30.4009 69.9285C30.0743 69.9051 29.8798 69.8773 29.7505 69.8426C29.6131 69.8056 29.5488 69.7608 29.4858 69.7156V69.7146L29.4409 69.6834L29.4321 69.6766L29.4243 69.6697L26.4028 66.6482V66.6473C26.2555 66.5233 26.1039 66.286 25.9126 65.5672C25.7154 64.8261 25.47 63.5495 25.1548 61.3064C25.0754 60.7417 24.9103 59.5122 24.7896 58.2586C24.6694 57.0113 24.5905 55.7203 24.6909 55.0428L24.7212 54.8436L24.7271 54.8064L24.7515 54.7791L24.8853 54.6268C27.0909 52.1226 29.5371 49.6929 31.8989 47.3475C34.409 44.8551 36.8429 42.438 38.6499 40.24C39.5532 39.1413 40.2977 38.1008 40.8149 37.1365C41.3081 36.2171 41.587 35.375 41.6128 34.6228C38.4634 34.6714 36.9523 36.5658 36.2935 37.3934C36.2443 37.4548 36.1995 37.51 36.1597 37.5594V37.5603L35.7437 38.0672L35.6675 38.16L35.5718 38.0877L35.0483 37.6941C34.6893 37.4252 34.1121 36.8488 33.3354 35.992L31.9751 34.6326H31.9741C31.5365 34.2876 30.8344 33.5577 30.064 32.6941C29.2834 31.8192 28.425 30.798 27.687 29.8807C26.0267 27.8181 25.1918 26.5971 24.772 25.8543C24.5621 25.4829 24.4543 25.227 24.3989 25.0428C24.3425 24.855 24.3413 24.7441 24.3413 24.6678C24.3413 24.3994 24.4532 24.068 24.6479 23.7039C24.8443 23.3368 25.1314 22.9235 25.4985 22.4891C26.2329 21.6201 27.2931 20.6559 28.6001 19.7859C31.0508 18.155 35.3037 16.2176 41.6714 16.2176ZM41.6694 17.8348C36.1098 17.8348 32.2439 19.3463 29.7368 20.9617C28.4828 21.7697 27.5678 22.6045 26.9507 23.2898C26.6422 23.6325 26.4088 23.9375 26.2446 24.1824C26.0983 24.4007 26.0113 24.5656 25.9731 24.6648C26.0204 24.8 26.1297 25.0101 26.2993 25.284C26.4824 25.5796 26.7278 25.9399 27.0171 26.3426C27.5954 27.1476 28.3473 28.1196 29.1294 29.0848C29.9115 30.0499 30.7232 31.0072 31.4185 31.783C32.1169 32.5623 32.6905 33.149 33.0005 33.3816L33.0386 33.41L33.0522 33.4217L34.5132 34.8846L34.5181 34.8895H34.5171C34.9169 35.3309 35.2215 35.6463 35.4487 35.8738C36.4028 34.774 38.3308 33.0029 41.728 33.0027C41.8488 33.0027 41.9697 33.0069 42.0942 33.0154L42.4839 33.0545L43.0034 33.1209L43.0981 33.1336L43.1118 33.2283L43.1821 33.7459C43.217 34 43.2358 34.2576 43.2358 34.5096C43.2358 36.4598 42.0325 38.61 40.1724 40.9334C38.3085 43.2614 35.7634 45.7895 33.0396 48.4949C30.7542 50.764 28.3953 53.1046 26.272 55.4998C26.2108 56.4828 26.4349 58.7239 26.729 60.866C26.8777 61.9486 27.0432 63.0014 27.1968 63.8455C27.347 64.6708 27.4844 65.2828 27.5796 65.535L30.3481 68.3055C30.9914 68.3676 32.8782 68.4051 35.4175 68.4207C38.0094 68.4366 41.2718 68.4318 44.5601 68.4139C51.0103 68.3787 57.5563 68.2919 59.3433 68.2166C59.4848 67.4009 59.6645 65.3492 59.7183 62.2879C59.7524 60.3441 59.7198 58.8738 59.6597 57.8396C59.6296 57.3227 59.5927 56.9156 59.5542 56.6131C59.5184 56.3317 59.4816 56.1487 59.4507 56.0525L56.7642 53.366L49.2329 53.6248L48.9204 53.6355L49.1401 53.4119L50.3403 52.1912C56.151 46.2821 59.9868 41.064 59.9868 34.7078C59.9868 30.1432 58.2879 26.4523 55.0757 23.993L54.7603 23.7586L54.6685 23.6932L54.6509 23.6805L54.6392 23.6639L54.5737 23.5701C51.9452 19.8793 47.3685 17.8348 41.6694 17.8348Z" fill="#3583DC" stroke="#3583DC" stroke-width="0.25"/>
<path d="M41.6714 16.2162C46.4975 16.2163 50.6561 17.5932 53.687 20.2074C56.8953 22.9754 58.5874 26.9493 58.5874 31.6879C58.5874 38.8731 54.2167 44.7276 46.6772 52.0932L57.395 51.726L57.4556 51.724L57.4946 51.7699L57.7095 52.0229C57.7581 52.0801 57.83 52.1677 57.9067 52.3666C57.9818 52.5612 58.0611 52.8616 58.1304 53.3451C58.2688 54.3121 58.372 56.0327 58.3228 59.1557C58.3145 59.6637 58.2837 61.1965 58.1929 62.7201C58.1474 63.482 58.0872 64.2439 58.0063 64.8744C57.9659 65.1896 57.9204 65.4742 57.8687 65.7104C57.8175 65.9436 57.7577 66.1392 57.687 66.2719V66.2729C57.5095 66.6045 57.2265 66.7477 56.9712 66.7729C56.7049 66.8063 55.9483 66.8368 54.8892 66.8637C53.8256 66.8907 52.4477 66.9151 50.9331 66.9359C47.9036 66.9776 44.3237 67.006 41.6069 67.019C39.924 67.0258 38.3107 67.0307 36.8149 67.0307C34.8418 67.0307 33.0717 67.0238 31.6274 67.0102C29.2864 66.9883 28.0687 66.9565 27.4077 66.9106C27.0782 66.8877 26.8799 66.8612 26.7476 66.8275C26.6076 66.792 26.5405 66.7485 26.4761 66.7025V66.7016C26.4086 66.656 26.3282 66.5966 26.2407 66.4535C26.1557 66.3144 26.065 66.0988 25.9624 65.7445C25.7571 65.035 25.497 63.7382 25.1558 61.3061C25.0763 60.7412 24.9112 59.5125 24.7905 58.2592C24.6704 57.012 24.5925 55.7211 24.6929 55.0434V55.0424L24.7231 54.8432L24.728 54.807L24.7524 54.7787L24.8862 54.6273C27.092 52.1231 29.5389 49.6936 31.9009 47.3481C34.411 44.8557 36.8449 42.4386 38.6519 40.2406C39.5551 39.1419 40.2987 38.1013 40.8159 37.1371C41.3338 36.1717 41.6196 35.2914 41.6196 34.5111C41.6196 34.1637 41.5652 33.4329 41.1763 32.7924C40.7934 32.162 40.077 31.6021 38.7114 31.602C35.8875 31.602 34.3546 33.0836 33.5688 34.015L33.2759 34.3744C33.2267 34.4359 33.1829 34.491 33.1431 34.5404L33.1421 34.5414L32.7261 35.0482L32.6509 35.141L32.5542 35.0688L32.0308 34.6752C31.6035 34.3547 30.8904 33.6175 30.103 32.7367C29.3123 31.8521 28.438 30.8124 27.687 29.8793C26.0267 27.8167 25.1918 26.5957 24.772 25.8529C24.5621 25.4816 24.4543 25.2257 24.3989 25.0414C24.3425 24.8537 24.3413 24.7427 24.3413 24.6664C24.3413 24.3981 24.4532 24.0666 24.6479 23.7025C24.8443 23.3354 25.1314 22.9221 25.4985 22.4877C26.2329 21.6188 27.2931 20.6545 28.6001 19.7846C31.0508 18.1536 35.3037 16.2162 41.6714 16.2162ZM41.6685 17.8344C36.109 17.8344 32.243 19.346 29.7358 20.9613C28.4818 21.7693 27.5668 22.6041 26.9497 23.2895C26.6411 23.6322 26.4069 23.937 26.2427 24.182C26.0957 24.4013 26.0101 24.5673 25.9722 24.6664C26.0145 24.7865 26.1062 24.9662 26.2466 25.1986C26.4004 25.4533 26.6055 25.7625 26.8501 26.1098C27.3393 26.8044 27.9815 27.6491 28.6714 28.516C30.005 30.192 31.5116 31.9441 32.4263 32.8588C33.3789 31.7588 35.3072 29.9839 38.7095 29.9838C40.3675 29.9838 41.5049 30.591 42.2251 31.4691C42.9417 32.3431 43.2358 33.4738 43.2358 34.5102C43.2357 36.4603 42.0324 38.6108 40.1724 40.934C38.3085 43.2619 35.7632 45.7893 33.0396 48.4945C30.7542 50.7635 28.3953 53.1043 26.272 55.4994C26.2124 56.4342 26.4117 58.5098 26.6851 60.557C26.9522 62.5577 27.2878 64.5051 27.5063 65.3012C29.1732 65.4169 35.5029 65.4296 41.8618 65.393C48.207 65.3565 54.5667 65.2703 56.3237 65.1957C56.4653 64.3796 56.646 62.3278 56.6997 59.267C56.7546 56.0877 56.6295 54.1812 56.5024 53.3734L44.6313 53.7826L44.5513 53.7846L44.5151 53.7133L43.9556 52.5932L43.9146 52.5111L43.981 52.4477L44.3452 52.099C52.3671 44.4231 56.9683 38.6421 56.9683 31.6879C56.9683 27.4734 55.4668 24.0137 52.811 21.6068C50.154 19.1989 46.3297 17.8344 41.6685 17.8344Z" fill="#3583DC" stroke="#3583DC" stroke-width="0.25"/>
</g>
<defs>
<clipPath id="clip0_4606_1178">
<rect width="70" height="70" fill="white" transform="translate(8 8)"/>
</clipPath>
</defs>
</svg>
