<svg width="86" height="86" viewBox="0 0 86 86" fill="none" xmlns="http://www.w3.org/2000/svg">
<g clip-path="url(#clip0_4606_1188)">
<path d="M41.2488 15.8963C47.6151 15.8963 52.9265 18.2066 55.8298 22.2615C59.3273 24.8055 61.2527 28.6419 61.2527 33.077C61.2527 38.8587 58.1887 42.2199 56.4744 43.6482C56.8231 44.0343 57.1464 44.445 57.4402 44.8777C59.0651 45.9785 62.491 48.9813 62.491 54.6922C62.491 59.6092 60.5399 63.6999 56.8455 66.5115L56.8464 66.5125C53.5746 69.0043 49.0313 70.3699 44.0593 70.3699C33.6627 70.3699 28.2008 65.4622 26.7527 63.9305L24.2419 61.4207L23.9714 61.1561L23.7244 60.9012L23.5935 60.7625L23.5691 60.7361L23.5623 60.702L23.5222 60.5154C23.4447 60.1561 23.5126 59.6304 24.2859 58.1795C24.7752 57.2599 25.4563 56.1517 26.199 55.0555L26.6531 54.3982C27.1464 53.6989 27.7476 52.8923 28.3718 52.159C28.7878 51.6703 29.2156 51.2121 29.6306 50.8396C30.0441 50.4686 30.4523 50.1761 30.8279 50.0262L31.2468 49.8592L31.323 49.8289L31.7 50.2059C32.3498 50.8556 34.8218 52.9978 39.113 52.9978C40.6571 52.9978 41.5794 52.5947 42.1316 52.1053C42.6302 51.6631 42.8389 51.1388 42.9255 50.743C42.3903 50.6574 41.8024 50.6131 41.1697 50.6131C40.7376 50.6131 39.6949 50.6299 38.6853 50.6463C37.6142 50.664 36.5041 50.6814 36.0066 50.6814H35.6716L35.6355 50.6443L32.3572 47.3582L32.3513 47.3523L32.3455 47.3455C32.1888 47.1404 32.0654 46.8301 31.9646 46.4637C31.8629 46.094 31.7817 45.6544 31.7166 45.1814C31.5862 44.2354 31.5187 43.1446 31.4851 42.1873L31.4646 41.4305C31.4306 39.6075 31.4998 37.4323 31.7888 36.0994C31.9568 35.3269 32.1917 34.8659 32.6072 34.6453L32.7576 34.5652L32.7859 34.5506H32.988C33.3201 34.5506 33.7821 34.5589 34.3044 34.5721C33.8213 34.1001 33.178 33.4099 32.3044 32.3963C31.8033 32.0987 31.0432 31.3693 29.9187 30.1014C28.7746 28.8114 27.2411 26.9506 25.2009 24.3895L24.5808 23.6141L24.2117 23.159L24.1443 23.075L24.2166 22.9959L24.6121 22.5623C27.2157 19.6985 31.7771 15.8963 41.2488 15.8963ZM41.2488 17.5135C32.9517 17.5135 28.7418 20.5968 26.2781 23.1492C26.3375 23.2238 26.4008 23.3024 26.4656 23.3836L27.8289 25.0828C29.1174 26.6761 30.1828 27.9531 31.0212 28.9109C31.5804 29.5497 32.0376 30.0456 32.3923 30.3973C32.5694 30.5728 32.7198 30.711 32.8435 30.8133C32.9674 30.9156 33.0586 30.9756 33.1189 31.0027L33.2751 31.0662L33.3035 31.0779L33.324 31.1014L33.4314 31.2273C34.7838 32.8051 35.4929 33.4977 35.8455 33.8006C37.3004 32.6325 39.8638 31.5125 42.0632 31.5125C42.57 31.5125 43.0599 31.5524 43.5173 31.6316L44.0779 31.7283L44.1804 31.7469L44.1814 31.8504L44.1873 32.3963L44.1902 32.4686C44.1902 33.6862 43.7022 34.6534 42.7878 35.3113C41.8791 35.965 40.5604 36.3054 38.907 36.3055C38.2839 36.3055 37.1693 36.2726 35.9958 36.2371C35.0653 36.2097 34.1103 36.1813 33.4333 36.1717C33.3451 36.4736 33.2496 37.018 33.1804 37.7967C33.1045 38.6514 33.0575 39.779 33.0759 41.157C33.0957 42.6582 33.1841 43.875 33.2937 44.7615C33.3485 45.205 33.4087 45.5651 33.4675 45.8357C33.5244 46.0976 33.5783 46.2641 33.6199 46.3445L36.3386 49.0623C36.9021 49.0577 37.7912 49.0437 38.658 49.0291C39.7181 49.0113 40.722 48.9949 41.1677 48.9949C42.2025 48.9949 43.1496 49.0989 43.9802 49.3055L44.4763 49.4305L44.5671 49.4529L44.571 49.5457L44.5945 50.0779L44.6013 50.2254C44.6013 51.0436 44.3101 52.1415 43.4734 53.0359C42.6339 53.9333 41.2576 54.613 39.1121 54.6131C34.9175 54.6131 32.2054 52.7895 31.0251 51.7801C30.3571 52.2942 29.2101 53.5263 27.6794 55.7527C26.3006 57.7618 25.4219 59.4101 25.1794 60.076L25.363 60.2566L25.365 60.2586L25.3777 60.2703V60.2713L27.9167 62.8113L27.9187 62.8133C29.2255 64.1984 34.2744 68.7547 44.0583 68.7547C47.9481 68.7546 52.1561 67.8291 55.3875 65.6102C58.6128 63.3952 60.8727 59.8871 60.8728 54.6951C60.8728 49.605 57.7566 47.0188 56.4177 46.1414L56.4167 46.1404L56.2996 46.0623L56.2781 46.0486L56.2644 46.0281L56.1863 45.91C55.8141 45.3463 55.3856 44.8233 54.9109 44.3514L54.7048 44.1521L54.0886 43.5721L53.9753 43.4666L54.1033 43.3787L54.7986 42.8973L55.0398 42.7244C56.3786 41.727 59.6335 38.7162 59.6335 33.0779C59.6334 29.069 57.9546 25.7589 54.7771 23.4959L54.6814 23.4275L54.6628 23.4148L54.6511 23.3973L54.5837 23.3006C52.0179 19.6324 47.1663 17.5135 41.2488 17.5135ZM42.0623 33.1297C40.4254 33.1297 38.6085 33.884 37.4158 34.66C38.0224 34.6762 38.557 34.6883 38.905 34.6883C39.6732 34.6883 40.4967 34.6067 41.1687 34.3504C41.7889 34.1137 42.2659 33.7335 42.4666 33.1404C42.3343 33.1335 42.199 33.1297 42.0623 33.1297Z" fill="#3583DC" stroke="#3583DC" stroke-width="0.25"/>
<path d="M41.2468 15.899C46.3115 15.899 50.5572 17.3161 53.5388 19.7984C56.5223 22.2824 58.2322 25.8269 58.2322 30.0611C58.2321 35.378 55.5813 39.1275 52.947 41.0426C54.0402 41.5258 55.3287 42.3884 56.4568 43.6295C57.8326 45.145 59.4724 47.7717 59.4724 51.6764C59.4724 56.5934 57.5214 60.6851 53.8269 63.4967C50.5538 65.9855 46.0126 67.3512 41.0408 67.3512C31.2738 67.3512 25.8608 63.0209 24.0408 61.2262L23.7244 60.9029L23.5935 60.7633L23.5691 60.7379L23.5623 60.7037L23.5222 60.5172L23.5017 60.3727C23.4734 60.0116 23.6094 59.4506 24.2859 58.1812L24.6873 57.4596C25.1199 56.7085 25.6419 55.8794 26.199 55.0572L26.6531 54.4C27.1465 53.7006 27.7476 52.8941 28.3718 52.1607C28.7878 51.672 29.2156 51.2138 29.6306 50.8414C30.0441 50.4704 30.4523 50.1779 30.8279 50.0279L31.2468 49.8609L31.323 49.8297L31.3806 49.8883L31.7 50.2066C32.3494 50.856 34.8211 52.9986 39.113 52.9986C40.9872 52.9986 41.9457 52.4062 42.4402 51.7799C42.9391 51.1479 42.9861 50.457 42.9861 50.2281C42.986 49.6384 42.7813 49.1852 42.4539 48.8326C42.1236 48.4772 41.6631 48.2189 41.1472 48.0338C40.114 47.663 38.891 47.5953 38.1492 47.5953C37.7171 47.5953 36.6753 47.6121 35.6658 47.6285C34.5948 47.6463 33.4849 47.6637 32.9871 47.6637H32.5876L32.5496 47.6148L32.3445 47.3473C32.1877 47.1421 32.0635 46.8311 31.9626 46.4644C31.8611 46.095 31.7797 45.6559 31.7146 45.1832C31.5842 44.237 31.5167 43.1455 31.4832 42.1881C31.4134 40.2475 31.4565 37.6234 31.7869 36.1002C31.9549 35.3277 32.1907 34.8676 32.6062 34.6471L32.7566 34.566L32.7839 34.5514H32.9871C33.6622 34.5514 34.8745 34.5871 36.0437 34.6227C37.1589 34.6555 38.3079 34.69 38.907 34.69C39.7657 34.69 40.6909 34.5875 41.3972 34.2555C41.7488 34.0902 42.042 33.8704 42.2468 33.5816C42.4508 33.2941 42.5729 32.9309 42.573 32.4703C42.573 31.9356 42.4205 31.5272 42.1814 31.2125C41.941 30.8962 41.6068 30.6669 41.2322 30.5025C40.4802 30.1726 39.5882 30.1119 39.0447 30.1119C37.9699 30.1119 36.8155 30.4359 35.8083 30.8814C34.8004 31.3274 33.9526 31.8895 33.489 32.3531L33.2693 32.5738L33.2292 32.6139L33.1716 32.61L32.8601 32.5875C32.6374 32.5718 32.3867 32.4671 32.0574 32.2271C31.7275 31.9869 31.308 31.6032 30.7468 31.0123C29.6238 29.8298 27.9171 27.8015 25.2 24.3912L24.5798 23.6168L24.2107 23.1617L24.1433 23.0777L24.2156 22.9986L24.6101 22.565C27.2137 19.7012 31.7751 15.8991 41.2468 15.899ZM41.2488 17.5152C32.9526 17.5152 28.7429 20.5978 26.2791 23.15C26.3381 23.2238 26.4003 23.3016 26.4656 23.3834C28.1755 25.5293 29.5711 27.2302 30.6462 28.4791C31.6617 29.6586 32.3866 30.4269 32.8191 30.7906C34.2726 29.6191 36.8417 28.4947 39.0476 28.4947C40.6139 28.4948 41.8985 28.868 42.7947 29.5553C43.6946 30.2454 44.1931 31.2454 44.1931 32.4703C44.193 33.6877 43.7051 34.6543 42.7908 35.3121C41.8819 35.966 40.5628 36.3072 38.9089 36.3072C38.2858 36.3072 37.172 36.2744 35.9988 36.2389C35.0682 36.2115 34.1133 36.1831 33.4363 36.1734C33.348 36.4754 33.2515 37.0201 33.1824 37.7984C33.1064 38.653 33.0605 39.7802 33.0789 41.1578C33.1115 43.6267 33.3317 45.3203 33.5222 46.0426C34.0838 46.0366 34.873 46.0242 35.6433 46.0113C36.7035 45.9936 37.7073 45.9771 38.1531 45.9771C40.1478 45.9771 41.7573 46.365 42.8718 47.0914C43.9919 47.8215 44.6072 48.8912 44.6072 50.2271C44.6071 51.0453 44.3159 52.1433 43.4792 53.0377C42.6397 53.9352 41.2627 54.6148 39.1169 54.6148C34.923 54.6148 32.2116 52.7927 31.031 51.7818C30.363 52.296 29.216 53.528 27.6853 55.7545C26.3015 57.7631 25.4221 59.4108 25.1794 60.0758C26.8352 61.71 31.8468 65.734 41.0408 65.734C44.9306 65.734 49.1385 64.8094 52.3699 62.5904C55.5954 60.3754 57.8552 56.8666 57.8552 51.6744C57.8551 48.5116 56.6445 46.2159 55.2273 44.6754C53.8053 43.1297 52.1814 42.3506 51.3708 42.2154L50.7996 42.1197L50.6951 42.1021V40.525L50.7605 40.4898L51.116 40.2955L51.2693 40.2076C52.271 39.6103 56.6169 36.6399 56.6169 30.0592C56.6168 26.3076 55.0766 23.1762 52.3914 20.9801C49.7036 18.7821 45.8601 17.5153 41.2488 17.5152Z" fill="#3583DC" stroke="#3583DC" stroke-width="0.25"/>
</g>
<defs>
<clipPath id="clip0_4606_1188">
<rect width="70" height="70" fill="white" transform="translate(8 8)"/>
</clipPath>
</defs>
</svg>
