<svg width="86" height="86" viewBox="0 0 86 86" fill="none" xmlns="http://www.w3.org/2000/svg">
<g clip-path="url(#clip0_4606_1168)">
<path d="M40.7058 17.7285C38.7668 20.1002 34.9363 25.8359 31.2605 31.7334C27.5669 37.6594 24.0396 43.7325 22.7517 46.7061C22.6491 47.7647 22.7844 49.8177 23.0115 51.9258C23.2371 54.0204 23.5515 56.1533 23.8035 57.3877L26.4353 60.0186C29.8662 60.2104 37.512 60.1308 41.947 60.0273L42.6521 60.0117L42.782 60.0088L42.78 60.1377L42.7351 65.3037L45.3455 67.916C49.1553 68.7254 54.1076 68.6864 57.4724 68.291V68.2695C57.4492 67.247 57.4039 65.3447 57.3738 63.6943C57.3424 62.035 57.3266 61.1975 57.3484 60.7461C57.3592 60.5214 57.3803 60.3777 57.4197 60.2725C57.4618 60.16 57.5227 60.0985 57.5818 60.0381L57.783 59.832L57.8191 59.7939H58.1599C58.8156 59.79 61.8817 59.7389 63.2224 59.6699C63.2762 57.5453 63.3151 55.3473 63.325 53.5479C63.3348 51.7582 63.315 50.3727 63.2595 49.8408L60.6306 47.2119C60.1855 47.1778 59.5128 47.1437 58.6228 47.1133L57.9607 47.0898L57.8396 47.0859L57.8406 46.9648L57.9021 21.9756L55.2693 19.3428C53.7014 18.9118 50.9534 18.5487 48.1414 18.2725C45.3456 17.9978 42.4969 17.8106 40.7058 17.7285ZM59.4597 45.5264C60.191 45.5578 60.7338 45.5912 61.0779 45.6279L61.3191 45.6543L61.3621 45.6582L64.7253 49.0215L64.7341 49.0508L64.7849 49.2139C64.8255 49.3456 64.8548 49.5837 64.8767 49.8896C64.8989 50.2004 64.9148 50.5946 64.9255 51.0469C64.9469 51.9517 64.9473 53.0954 64.9373 54.2832C64.9172 56.659 64.8539 59.2173 64.821 60.4131C64.8175 60.6549 64.7297 60.8564 64.5535 61.002C64.3818 61.1436 64.1385 61.2224 63.8416 61.251H63.8406C63.6753 61.2663 63.4471 61.2802 63.1453 61.2939L63.1462 61.2949C62.6581 61.3182 61.9796 61.3398 61.1316 61.3604C60.3301 61.3794 59.5251 61.3919 58.9568 61.4014C58.9661 62.4891 59.0103 64.7759 59.0906 68.2344C59.1015 68.687 59.1072 68.9764 59.1072 69.0029V69.7041L58.9998 69.7197L58.4138 69.8027C56.7409 70.0388 54.6615 70.1885 52.4851 70.1885C50.0446 70.1885 47.4757 70.0005 45.2146 69.54L44.7664 69.4443L44.572 69.4004L44.5369 69.3926L41.1121 65.9678L41.113 65.916L41.1492 61.6621C36.4721 61.759 29.1565 61.8192 26.0291 61.6143L25.7722 61.5986L25.7253 61.5947L22.3494 58.2188L22.323 58.1934L22.3152 58.1572L22.2732 57.9619C22.0312 56.8551 21.6797 54.5687 21.4255 52.2617C21.1719 49.9591 21.013 47.6157 21.1599 46.4033L21.1707 46.3076L21.1726 46.29L21.1794 46.2725L21.2175 46.1836C22.506 43.1548 26.2118 36.782 30.0505 30.6338C33.8894 24.4854 37.8742 18.5421 39.7263 16.375L39.9421 16.1221L39.9822 16.0762L40.0427 16.0781L40.3748 16.0918C42.2008 16.1664 45.263 16.3595 48.2791 16.6562C51.2914 16.9526 54.2708 17.3537 55.9226 17.8457L56.0886 17.8945L56.1189 17.9043L56.1414 17.9258L59.4841 21.2686L59.5203 21.3057V21.3574L59.4597 45.5264Z" fill="#3583DC" stroke="#3583DC" stroke-width="0.25"/>
<path d="M40.0454 16.0781L40.3774 16.0918C42.2035 16.1664 45.2657 16.3595 48.2817 16.6562C51.2941 16.9526 54.2735 17.3537 55.9253 17.8457L56.4155 17.9922L56.5044 18.0186V18.1123L56.436 45.4316C57.6935 45.4592 60.0981 45.5235 61.0806 45.626V45.627L61.5308 45.6748L61.6128 45.6826L61.6362 45.7617L61.769 46.1943C61.8095 46.3261 61.839 46.5637 61.8608 46.8691C61.8831 47.1798 61.899 47.5742 61.9097 48.0264C61.9311 48.931 61.9314 50.0741 61.9214 51.2617C61.9014 53.6373 61.838 56.1957 61.8052 57.3916C61.8016 57.6332 61.7138 57.8347 61.5376 57.9805C61.3659 58.1225 61.1227 58.2016 60.8247 58.2295C60.6594 58.2448 60.4317 58.2597 60.1313 58.2734C59.6433 58.2967 58.9655 58.3184 58.1177 58.3389H58.1167C57.3139 58.3579 56.51 58.3704 55.9419 58.3799C55.9513 59.4676 55.9964 61.7545 56.0767 65.2129C56.0875 65.6644 56.0923 65.9518 56.0923 65.9795V66.6816L55.9849 66.6973L55.3989 66.7803C53.7217 67.0205 51.6426 67.1699 49.4663 67.1699C46.8631 67.1699 44.1135 66.9561 41.7476 66.4258L41.2095 66.3057L41.1108 66.2832V66.1826L41.1772 58.5635C37.3605 58.7004 26.9342 58.8543 23.0112 58.5957L22.4985 58.5615L22.4048 58.5557L22.3853 58.4639L22.2759 57.9619C22.0339 56.8551 21.6824 54.5687 21.4282 52.2617C21.1746 49.9591 21.0157 47.6157 21.1626 46.4033L21.1733 46.3076L21.1753 46.29L21.1821 46.2725L21.2202 46.1836C22.5087 43.1548 26.2145 36.782 30.0532 30.6338C33.8921 24.4854 37.8769 18.5421 39.729 16.375L39.9448 16.1221L39.9849 16.0762L40.0454 16.0781ZM40.7036 17.7285C38.766 20.1001 34.9359 25.8357 31.2603 31.7334C27.567 37.6594 24.0394 43.7325 22.7515 46.7061C22.6535 47.7222 22.7742 49.6543 22.9849 51.6729C23.1912 53.6497 23.4822 55.6954 23.731 57.0156C28.3313 57.2334 39.4197 57.0423 41.9517 56.9121L42.6763 56.875L42.8091 56.8682L42.8081 57.001L42.7368 64.9795C46.4868 65.702 51.209 65.6536 54.4526 65.2725V65.2529C54.4294 64.2305 54.3835 62.3282 54.3521 60.6777C54.3207 59.0179 54.3049 58.1799 54.3267 57.7285C54.3375 57.5039 54.3586 57.3601 54.3979 57.2549C54.4401 57.1425 54.501 57.0809 54.5601 57.0205L54.7612 56.8145L54.7983 56.7764H55.1382C55.7938 56.7724 58.8598 56.7213 60.2007 56.6523C60.2987 52.7957 60.3423 48.7049 60.2632 47.1885C58.6396 47.0882 55.6573 47.0369 55.605 47.0352V47.0342L54.9331 47.0244L54.8101 47.0225V46.8984L54.8794 19.2461C51.5255 18.4387 44.1601 17.8881 40.7036 17.7285Z" fill="#3583DC" stroke="#3583DC" stroke-width="0.25"/>
</g>
<defs>
<clipPath id="clip0_4606_1168">
<rect width="70" height="70" fill="white" transform="translate(8 8)"/>
</clipPath>
</defs>
</svg>
