<svg width="86" height="86" viewBox="0 0 86 86" fill="none" xmlns="http://www.w3.org/2000/svg">
<g clip-path="url(#clip0_4606_1193)">
<path d="M51.6995 17.8569C49.3554 17.8479 46.4614 17.8894 43.5569 17.9565C37.8512 18.0882 32.1114 18.3195 30.4163 18.4614C29.8206 20.8933 29.3039 25.6107 28.9319 30.3969C28.5582 35.2054 28.3301 40.0696 28.3118 42.727L31.0149 45.4292L37.7024 49.2876C39.2699 48.4927 41.1301 47.7554 43.1711 47.8872H43.1721C43.5071 47.9136 43.8263 47.9609 44.1321 48.0249L44.5959 48.1235L44.6799 48.142L44.6936 48.227L44.7639 48.6958C44.8086 48.9906 44.8313 49.2951 44.8313 49.5991C44.8313 51.1748 44.366 52.4314 43.4797 53.2934C42.594 54.1549 41.3039 54.6069 39.6858 54.6069C35.4297 54.6068 31.6142 52.0957 29.7981 50.9018C29.6421 50.7997 29.478 50.6936 29.3342 50.602C28.7999 51.4082 27.7717 53.3163 26.7991 55.2797C25.8063 57.2839 24.8818 59.3234 24.595 60.2856C24.686 60.3832 24.8166 60.5114 25.0032 60.6704L25.2512 60.8735L25.2561 60.8774L25.1731 60.9721L25.2561 60.8784L25.3147 60.9301L25.3206 60.935L27.3655 62.9819L27.3762 62.9926L27.384 63.0053L27.427 63.0747C27.5243 63.2346 27.7212 63.4489 28.0168 63.7036C28.3104 63.9563 28.6939 64.2433 29.1575 64.5493C30.0848 65.1613 31.3266 65.8474 32.7922 66.4897C35.7242 67.7746 39.5444 68.8812 43.5315 68.8813C49.1572 68.8813 53.6344 67.3372 56.7034 64.5141C59.771 61.6922 61.4465 57.5789 61.4465 52.4116C61.4465 47.1596 59.7195 43.1387 56.4651 40.727L56.1458 40.4985L56.0432 40.4272L56.0247 40.4145L56.011 40.396L55.9407 40.2934C53.7268 37.0989 50.0617 35.3326 45.6077 35.3325C44.9187 35.3325 44.1752 35.3797 43.3987 35.4721L42.594 35.5678L42.4465 35.5854L42.4543 35.437L42.6184 32.1889L42.6243 32.0727L42.7395 32.0698L43.3723 32.0542C48.8298 31.9131 56.8334 31.68 59.0208 31.5581C59.1376 29.9691 59.1561 25.1221 59.1086 20.6713L56.4905 18.0522C55.7722 17.9248 54.0099 17.8658 51.6995 17.8569ZM60.7239 20.3657C60.7241 20.3898 60.7244 20.4252 60.7249 20.4702C60.7258 20.56 60.7272 20.6898 60.7288 20.854C60.7318 21.1827 60.7357 21.6491 60.7395 22.2065C60.747 23.3213 60.7534 24.8015 60.7493 26.2758C60.7438 28.0111 60.7261 29.403 60.6946 30.4096C60.664 31.3927 60.6365 31.9932 60.551 32.3715C60.5077 32.5635 60.4465 32.71 60.3547 32.8237C60.2617 32.9389 60.145 33.0104 60.009 33.0649C59.9545 33.0868 59.8917 33.1062 59.5999 33.1323C59.306 33.1585 58.7686 33.1918 57.7551 33.2358C55.7364 33.3234 51.8213 33.4525 44.1633 33.6518L44.1575 33.7758C44.657 33.7379 45.1414 33.7172 45.6057 33.7172C50.5362 33.7172 54.645 35.6791 57.1829 39.2534C60.9844 41.937 63.0637 46.6099 63.0637 52.4135C63.0636 58.0929 61.1447 62.7769 57.5032 65.9467C54.0775 68.9299 49.2428 70.4985 43.5334 70.4985C38.819 70.4985 34.6825 69.0987 32.0442 67.9243C30.6471 67.3026 29.3464 66.5941 28.304 65.9067C27.275 65.2282 26.485 64.5611 26.1086 64.0102L24.2083 62.1098C23.6448 61.6592 23.2436 61.2509 23.0266 60.896L22.8958 60.6811L22.8713 60.642L22.8792 60.5961L22.9182 60.3481C22.9732 60.0047 23.1463 59.4872 23.3752 58.9008C23.6054 58.3113 23.8961 57.6415 24.1926 56.9887C24.7859 55.6828 25.4043 54.4387 25.6096 54.0288C26.9059 51.4452 27.6611 50.1439 28.1487 49.4877C28.3921 49.1602 28.577 48.9817 28.7385 48.8881C28.9079 48.79 29.0427 48.7905 29.1545 48.7905C29.3525 48.7905 29.5346 48.8507 29.7649 48.9731C29.9925 49.0941 30.2794 49.2835 30.6858 49.5512C32.3994 50.6767 35.9253 52.9906 39.6858 52.9907C40.8793 52.9907 41.7566 52.6998 42.3352 52.143C42.9129 51.5871 43.2141 50.7461 43.2141 49.601C43.2141 49.5733 43.2127 49.5455 43.2122 49.518C43.159 49.5122 43.1058 49.5062 43.052 49.5014V49.5004C41.2627 49.3863 39.531 50.1486 38.0569 50.9252L37.7229 51.101L37.6624 51.1323L37.6028 51.0981L30.0393 46.7338L30.0256 46.726L26.6946 43.395V43.06C26.6946 40.4214 26.937 35.1722 27.3459 30.0161C27.7545 24.8651 28.3305 19.7878 28.9993 17.5014L29.1018 17.1489L29.1204 17.0835L29.1848 17.0639L29.5364 16.9555C29.6113 16.9325 29.7749 16.9112 29.9983 16.8891C30.2285 16.8663 30.5378 16.8415 30.9133 16.8159C31.6645 16.7647 32.6872 16.7091 33.8948 16.6528C36.3108 16.54 39.4698 16.4256 42.6819 16.3442C45.8939 16.2628 49.1609 16.2149 51.7922 16.2348C53.1076 16.2448 54.2655 16.2713 55.179 16.3198C56.0872 16.368 56.7669 16.4385 57.1174 16.5385H57.1184L57.2893 16.5874L57.3196 16.5961L60.72 19.9965L60.7209 20.0473L60.7239 20.3266V20.3657Z" fill="#3583DC" stroke="#3583DC" stroke-width="0.25"/>
<path d="M56.0952 17.9989C54.1008 17.7906 48.5081 17.8362 42.9907 17.9696C37.4749 18.1029 32.0541 18.3238 30.4175 18.4608C29.826 20.8755 29.3133 25.543 28.9419 30.2938C28.5696 35.0558 28.3403 39.8885 28.3149 42.5926L34.6851 46.2674C36.2537 45.4727 38.112 44.7354 40.1528 44.867H40.1558C41.6289 44.9864 42.8009 45.4739 43.605 46.286C44.4101 47.0991 44.8335 48.226 44.8335 49.5985C44.8334 51.1738 44.3689 52.4299 43.4829 53.2918C42.5972 54.1533 41.307 54.6052 39.689 54.6053C35.4327 54.6053 31.6164 52.0941 29.8003 50.9002V50.8993C29.6447 50.7974 29.4808 50.6918 29.3374 50.6004C28.8012 51.4076 27.7706 53.3202 26.7964 55.287C25.8018 57.2948 24.8764 59.3366 24.5933 60.2938C24.9347 60.6739 25.5973 61.1986 26.5229 61.7762C27.4874 62.3781 28.7276 63.0338 30.1655 63.6395C33.0424 64.8514 36.7024 65.8631 40.5142 65.8631C46.1399 65.8631 50.6171 64.3181 53.686 61.495C56.7534 58.6731 58.4291 54.5604 58.4292 49.3934C58.4292 45.0415 57.1954 41.5274 54.9829 39.1034C52.7717 36.681 49.571 35.3339 45.6089 35.3338C42.8781 35.3338 40.3562 36.0486 40.3247 36.0575L40.3257 36.0584L39.4058 36.3241L39.2378 36.3719L39.2466 36.1971L39.6021 29.1698L39.6079 29.0545L39.7231 29.0516L40.3569 29.035C45.8143 28.8939 53.8168 28.6619 56.0044 28.5399C56.1182 26.9924 56.1392 22.3533 56.0952 17.9989ZM57.7046 17.3456C57.7048 17.3697 57.7051 17.4051 57.7056 17.45C57.7065 17.5398 57.7079 17.6697 57.7095 17.8338C57.7125 18.1626 57.7165 18.629 57.7202 19.1864C57.7277 20.3012 57.7351 21.7813 57.731 23.2557C57.7255 24.991 57.7078 26.3815 57.6763 27.3895C57.6457 28.3727 57.6172 28.9731 57.5317 29.3514C57.4884 29.5432 57.4281 29.6899 57.3364 29.8036C57.2434 29.9188 57.1266 29.9903 56.9907 30.0448C56.9361 30.0667 56.8738 30.0861 56.5815 30.1122C56.2877 30.1384 55.7497 30.1717 54.7358 30.2157C52.717 30.3033 48.802 30.4324 41.145 30.6317L40.9614 34.2401C42.0252 34.0105 43.7517 33.7167 45.6069 33.7166C49.8576 33.7166 53.4646 35.1393 56.0278 37.8407C58.661 40.6148 60.0454 44.6135 60.0454 49.3934C60.0453 55.0728 58.1254 59.7568 54.4839 62.9266C51.0582 65.9097 46.2235 67.4803 40.5142 67.4803C35.8 67.4803 31.6642 66.0805 29.0259 64.9061C27.595 64.2699 26.2644 63.5419 25.2095 62.8387C24.16 62.1391 23.3666 61.4525 23.0278 60.8954V60.8963L22.897 60.6815L22.8726 60.6424L22.8804 60.5965L22.9194 60.3475C22.9744 60.004 23.1475 59.4866 23.3765 58.9002C23.6066 58.3107 23.8973 57.6409 24.1938 56.9881C24.7871 55.6823 25.4055 54.4391 25.6108 54.0291L26.0728 53.119C27.0924 51.1299 27.7233 50.0612 28.1499 49.4872C28.3933 49.1597 28.5783 48.9821 28.7397 48.8885C28.9092 48.7903 29.0439 48.7909 29.1558 48.7909C29.3537 48.7909 29.5358 48.851 29.7661 48.9735C29.9936 49.0944 30.2808 49.283 30.687 49.5506C32.4006 50.6761 35.9265 52.991 39.687 52.9911C40.8805 52.9911 41.7578 52.6992 42.3364 52.1424C42.9139 51.5865 43.2153 50.7454 43.2153 49.6004C43.2153 48.6374 42.9457 47.9066 42.4253 47.3944C41.903 46.8803 41.1113 46.5698 40.0356 46.4823V46.4813C38.4695 46.3811 36.9478 46.9533 35.604 47.618L35.0396 47.9071L34.7056 48.0819L34.645 48.1141L34.5854 48.0789L26.7583 43.5633L26.6958 43.5272V43.0604C26.6958 40.4218 26.9383 35.1726 27.3472 30.0164C27.7557 24.8652 28.3317 19.7872 29.0005 17.5008L29.103 17.1483L29.1216 17.0838L29.186 17.0643L29.5376 16.9559C29.6125 16.9329 29.776 16.9116 29.9995 16.8895C30.2297 16.8667 30.539 16.8419 30.9146 16.8163C31.6658 16.7651 32.6884 16.7086 33.896 16.6522C36.312 16.5393 39.471 16.4251 42.6831 16.3436C45.8951 16.2621 49.1621 16.2142 51.7935 16.2342C53.1089 16.2442 54.2667 16.2706 55.1802 16.3192C56.0882 16.3675 56.7681 16.4378 57.1187 16.5379L57.6079 16.6776L57.6978 16.703L57.6987 16.7967L57.7046 17.3065V17.3456Z" fill="#3583DC" stroke="#3583DC" stroke-width="0.25"/>
</g>
<defs>
<clipPath id="clip0_4606_1193">
<rect width="70" height="70" fill="white" transform="translate(8 8)"/>
</clipPath>
</defs>
</svg>
