<svg width="86" height="86" viewBox="0 0 86 86" fill="none" xmlns="http://www.w3.org/2000/svg">
<g clip-path="url(#clip0_4606_1183)">
<path d="M41.7029 15.7227C41.9637 15.7228 42.3116 15.8448 42.6931 16.0273C43.0802 16.2126 43.5206 16.4697 43.9724 16.7578C44.8763 17.3342 45.8357 18.0422 46.5251 18.5693C48.8145 20.3208 50.7734 22.121 51.7849 23.4082C52.5283 24.0508 53.3609 24.8148 54.0662 25.5732C54.7704 26.3307 55.3607 27.0957 55.5984 27.7354L55.8083 28.3047L55.8474 28.4082L55.7488 28.459L55.2097 28.7363C52.6655 30.0467 49.9453 31.9176 47.7761 33.8242C51.7863 34.3377 55.2729 36.3307 57.5427 39.4609C60.3225 41.4711 63.5642 45.4182 63.5642 52.8672C63.5642 58.5021 61.6271 63.1285 57.9519 66.2285C54.6033 69.056 49.9532 70.543 44.5144 70.543C41.7791 70.5429 39.0285 69.9563 36.5623 68.8457C33.8541 67.6269 31.5645 65.8413 29.7595 63.5381C26.3659 60.8724 22.3767 55.7341 22.3767 46.3369C22.3768 36.9117 26.6253 29.5967 30.1843 25.123C34.5632 19.6193 39.3007 16.5134 41.4353 15.7676L41.5447 15.7295L41.5652 15.7227H41.7029ZM41.7673 17.374C39.8027 18.1555 35.4551 21.0986 31.4509 26.1318C28.047 30.4096 23.994 37.3852 23.9939 46.3398C23.9939 55.1754 27.7181 59.9093 30.8318 62.3252H30.8328L30.9011 62.3779L30.9128 62.3877L30.9226 62.4004L30.9753 62.4688H30.9763C34.1547 66.5708 39.088 68.9266 44.5144 68.9268C49.9897 68.9268 54.3465 67.4202 57.3328 64.668C60.3174 61.9171 61.9489 57.9079 61.949 52.8701C61.949 45.9914 58.9782 42.4577 56.4988 40.7021L56.4031 40.6357L56.3855 40.623L56.3728 40.6055L56.3054 40.5098V40.5088C53.9982 37.2558 50.1939 35.359 45.8611 35.3115L44.239 35.2939L43.9421 35.29L44.1511 35.0801L45.2976 33.9316C47.5334 31.6919 50.7049 29.3518 53.7312 27.6934C53.1819 26.9226 52.1044 25.8189 50.6716 24.585L50.6179 24.54L50.6082 24.5312L50.5994 24.5215L50.5574 24.4668V24.4658C49.5151 23.1136 47.5905 21.429 45.7761 20.0312C44.8702 19.3334 43.9943 18.709 43.2742 18.2363C42.585 17.784 42.05 17.4792 41.7673 17.374Z" fill="#3583DC" stroke="#3583DC" stroke-width="0.25"/>
<path d="M41.7043 15.724C41.8735 15.7241 42.0765 15.7756 42.2961 15.8578C42.5179 15.9409 42.7667 16.0588 43.0305 16.2006C43.5586 16.4845 44.1562 16.8683 44.7375 17.268C45.9008 18.0678 47.0075 18.9396 47.3713 19.2309C48.0467 19.7706 49.1879 20.7149 50.2385 21.7338C50.7637 22.2431 51.2682 22.7731 51.6809 23.2816C52.0921 23.7884 52.419 24.2818 52.5813 24.7182L52.7913 25.2875L52.8303 25.391L52.7317 25.4418L52.1926 25.7191C50.255 26.7166 48.0725 28.1324 46.1262 29.6684C44.2925 31.1155 42.6759 32.6636 41.6711 34.0639C42.8468 33.8162 44.1947 33.6898 45.6965 33.6898C49.3885 33.6899 53.1022 34.9393 55.8938 37.5883C58.6871 40.239 60.5471 44.2822 60.5471 49.85C60.547 55.4849 58.6092 60.1113 54.9338 63.2113C51.5826 66.0372 46.9335 67.5238 41.4963 67.5238C36.6783 67.5238 31.9728 65.7082 28.5881 62.5385C24.5201 58.7295 22.3782 53.1226 22.3782 46.3383C22.3783 36.9131 26.6267 29.598 30.1858 25.1244C34.5647 19.6207 39.3022 16.5148 41.4368 15.769L41.5461 15.7309L41.5667 15.724H41.7043ZM41.7688 17.3725C39.8043 18.1525 35.4561 21.0965 31.4504 26.1313C28.0464 30.4091 23.9944 37.3855 23.9944 46.3402C23.9944 53.1134 26.1975 58.0028 29.4797 61.1986C32.7634 64.3956 37.1375 65.9076 41.4963 65.9076C46.9714 65.9076 51.3275 64.4019 54.3137 61.6498C57.2987 58.8988 58.9299 54.8891 58.9299 49.851C58.9299 44.4682 57.1418 40.8376 54.6028 38.5512C52.0609 36.2624 48.7532 35.3091 45.6965 35.309C43.6625 35.309 41.973 35.5488 40.6692 36.018L40.1926 36.1889L40.1057 36.2201L40.051 36.1459L39.2971 35.141L39.2532 35.0815L39.2834 35.0141L39.4524 34.6449L39.6047 34.3324C40.423 32.7548 42.0553 30.9839 44.01 29.3109C46.0609 27.5557 48.48 25.898 50.719 24.6703C50.3289 24.1117 49.6894 23.4251 48.9153 22.6967C48.0904 21.9205 47.1206 21.1015 46.1584 20.3422C45.1964 19.583 44.2431 18.8844 43.4504 18.351C43.054 18.0842 42.698 17.8595 42.4026 17.6889C42.1315 17.5323 41.9165 17.4259 41.7688 17.3725Z" fill="#3583DC" stroke="#3583DC" stroke-width="0.25"/>
</g>
<defs>
<clipPath id="clip0_4606_1183">
<rect width="70" height="70" fill="white" transform="translate(8 8)"/>
</clipPath>
</defs>
</svg>
