<svg width="86" height="86" viewBox="0 0 86 86" fill="none" xmlns="http://www.w3.org/2000/svg">
<g clip-path="url(#clip0_4606_1173)">
<path d="M40.6832 16.3078C47.344 16.2608 54.0438 16.2967 56.2643 16.3117L56.2633 16.3127L56.7028 16.3137H56.7535L56.7897 16.3498L56.9908 16.549H56.9918L59.9215 19.4797C60.0797 19.5982 60.1722 19.7716 60.2321 19.9474C60.293 20.1268 60.3255 20.3236 60.3531 20.4924H60.3522C60.4018 20.7941 60.4631 21.2305 60.5328 21.7912L60.7321 23.466C60.8059 24.1128 60.8867 24.8468 60.9742 25.6633C61.2723 28.4392 61.5487 31.2534 61.5514 31.2805L61.568 31.4445L61.5709 31.4748L61.5602 31.5021L61.4996 31.6555C61.4627 31.7499 57.7393 41.2464 54.0465 50.6213C51.8781 56.127 50.1452 60.5149 48.8942 63.6623C48.1518 65.5313 47.5714 66.9794 47.1735 67.9641C46.9617 68.486 46.7944 68.8971 46.6764 69.1769C46.5684 69.4343 46.4723 69.6655 46.3385 69.8283C46.1946 70.0035 46.0089 70.0997 45.7389 70.0998C45.7252 70.0998 45.6609 70.0947 45.5651 70.0871C45.4646 70.0792 45.3205 70.067 45.1383 70.051C44.774 70.0189 44.2568 69.9711 43.6305 69.9055C42.3778 69.7742 40.6876 69.5739 38.9098 69.299C37.1325 69.0242 35.2648 68.6739 33.6578 68.2424C32.0571 67.8125 30.6938 67.297 29.943 66.6808L29.9381 66.676L29.8893 66.631L26.4674 63.2092L26.5035 63.1301L39.8766 34.1916L28.8727 34.3762L28.819 34.3771L25.443 31.0012L25.4225 30.9797L25.4127 30.9523L25.3619 30.799C25.1784 30.2482 25.0207 29.1491 24.8912 27.8635C24.7613 26.5725 24.6589 25.0777 24.5905 23.7258C24.5255 22.4415 24.4715 20.9979 24.4752 19.7922C24.4771 19.1894 24.4931 18.6435 24.5299 18.2062C24.5483 17.9877 24.5722 17.7939 24.6022 17.633C24.6318 17.4743 24.6693 17.3384 24.7184 17.2404L24.8766 16.925L24.9059 16.8674L24.9694 16.8576L25.318 16.8039C26.3601 16.6435 28.5408 16.5314 31.2848 16.4533C34.032 16.3751 37.3531 16.3313 40.6832 16.3078ZM41.2496 17.9211C34.9936 17.9597 28.6914 18.0687 26.1315 18.3332C26.0518 19.3722 26.1049 21.7975 26.2408 24.2238C26.311 25.4762 26.4028 26.7255 26.5084 27.7795C26.6121 28.8139 26.7286 29.6522 26.8492 30.1213L29.4791 32.7502L42.2281 32.5363L42.4274 32.5334L42.3434 32.7141L28.4088 62.8635L30.9967 65.4523C31.526 65.8725 32.5191 66.2615 33.7721 66.6105C35.0218 66.9587 36.5112 67.2624 38.0133 67.5178C40.9471 68.0166 43.9201 68.3306 45.2311 68.4416C46.7726 64.7345 56.1205 40.9403 59.9205 31.2473C59.735 29.3626 59.4881 26.9494 59.2604 24.8752C59.036 22.8316 58.8312 21.1259 58.7252 20.5715L56.0817 17.9279C53.7741 17.9134 47.5403 17.8822 41.2496 17.9211Z" fill="#3583DC" stroke="#3583DC" stroke-width="0.25"/>
<path d="M40.6832 16.3092C47.344 16.2622 54.0438 16.298 56.2643 16.3131L56.4205 16.315L56.4196 16.316C56.5944 16.3161 56.7403 16.3565 56.86 16.4332C56.979 16.5095 57.0648 16.6158 57.1276 16.732C57.25 16.9591 57.2952 17.2454 57.3326 17.4752C57.3822 17.777 57.4426 18.2134 57.5123 18.774L57.7115 20.4488C57.7854 21.0955 57.8662 21.8297 57.9537 22.6461C58.251 25.4156 58.5266 28.2189 58.5309 28.2633L58.5475 28.4273L58.5504 28.4566L58.5397 28.485L58.4791 28.6383C58.4361 28.7482 54.7167 38.237 51.027 47.6041C48.8587 53.1096 47.1247 57.4967 45.8737 60.6441C45.1312 62.5132 44.5519 63.9622 44.1539 64.9469C43.9421 65.4688 43.7748 65.8799 43.6569 66.1598C43.5495 66.4165 43.4536 66.6475 43.3199 66.8102C43.1761 66.9853 42.9895 67.0807 42.7194 67.0807C42.7049 67.0806 42.6413 67.0764 42.5465 67.0689C42.4461 67.061 42.3018 67.0488 42.1198 67.0328C41.7554 67.0007 41.2382 66.952 40.6119 66.8863C39.3593 66.755 37.669 66.5547 35.8912 66.2799C34.1139 66.0051 32.2463 65.6558 30.6393 65.2242C29.0384 64.7943 27.6753 64.2779 26.9244 63.6617L26.5162 63.3268L26.441 63.2652L26.4821 63.1783L41.3073 31.0992L25.6412 31.3619L25.5494 31.3629L25.5211 31.276L25.3619 30.8004C25.1784 30.2496 25.0207 29.1505 24.8912 27.8648C24.7613 26.5739 24.6589 25.0791 24.5905 23.7271C24.5255 22.4428 24.4715 20.9993 24.4752 19.7935C24.4771 19.1908 24.4931 18.6448 24.5299 18.2076C24.5483 17.9891 24.5722 17.7953 24.6022 17.6344C24.6318 17.4757 24.6693 17.3398 24.7184 17.2418L24.8766 16.9264L24.9059 16.8687L24.9694 16.859L25.318 16.8053C26.3601 16.6449 28.5408 16.5328 31.2848 16.4547C34.032 16.3765 37.3531 16.3327 40.6832 16.3092ZM55.7662 17.9264C53.1972 17.9105 47.0475 17.883 40.9098 17.9234C34.7661 17.9639 28.6444 18.0737 26.1315 18.3336C26.0561 19.3182 26.0987 21.5489 26.2194 23.8463C26.3408 26.1588 26.5403 28.52 26.7653 29.7262L43.6578 29.4439L43.8571 29.44L43.774 29.6217L28.4645 62.7428C29.1476 63.1108 30.1643 63.4504 31.358 63.7525C32.6087 64.0691 34.0424 64.3444 35.4655 64.5768C38.2416 65.03 40.9715 65.3168 42.2125 65.4225C43.7546 61.7139 53.1021 37.9206 56.902 28.2281C56.5642 24.8015 56.0209 19.6345 55.7662 17.9264Z" fill="#3583DC" stroke="#3583DC" stroke-width="0.25"/>
</g>
<defs>
<clipPath id="clip0_4606_1173">
<rect width="70" height="70" fill="white" transform="translate(8 8)"/>
</clipPath>
</defs>
</svg>
