<svg width="60" height="60" viewBox="0 0 60 60" fill="none" xmlns="http://www.w3.org/2000/svg">
<circle cx="30" cy="30" r="30" fill="#3583DC"/>
<path d="M24.2669 33.4841C25.9302 33.4841 27.2965 32.1178 27.2965 30.4545C27.2965 28.7912 25.9302 27.4249 24.2669 27.4249C22.6036 27.4249 21.2373 28.7912 21.2373 30.4545C21.2373 32.1178 22.6036 33.4841 24.2669 33.4841Z" fill="#F5F5F5"/>
<path d="M42.6822 32.296V32.7118C42.2069 32.7118 41.7911 32.7118 41.3159 32.7118V35.088V35.2662C41.3159 35.9196 40.7812 36.4543 40.1278 36.4543C39.4744 36.4543 38.9397 35.8602 38.9397 35.2662C38.9397 35.2068 38.9397 35.1474 38.9397 35.088C38.9397 35.0286 38.9397 34.9692 38.9397 34.9098C38.9397 34.1969 38.9397 33.4841 38.9397 32.7118C38.4051 32.7118 37.811 32.7118 37.2764 32.7118V35.088V35.2662C37.2764 35.9196 36.7418 36.4543 36.0883 36.4543C35.4349 36.4543 34.9003 35.8602 34.9003 35.2662C34.9003 35.2068 34.9003 35.1474 34.9003 35.088C34.9003 35.0286 34.9003 34.9692 34.9003 34.9098C34.9003 34.1969 34.9003 33.4841 34.9003 32.7118C34.5438 32.7118 34.128 32.7118 33.7716 32.7118C33.7122 32.7118 33.5934 32.7118 33.534 32.7118V26.4744C33.534 23.5637 31.1578 21.1875 28.247 21.1875H20.2869C17.3762 21.1875 15 23.5637 15 26.4744V34.3751C15 37.2859 17.3762 39.6621 20.2869 39.6621H32.2865H42.3851H43.8108C44.4643 39.6621 44.9989 39.1274 44.9989 38.474C44.9989 36.3949 44.9989 34.3751 44.9989 32.296C45.0583 30.8109 42.6822 30.8109 42.6822 32.296ZM24.267 25.0487C27.2372 25.0487 29.6727 27.4843 29.6727 30.4545C29.6727 33.4247 27.2372 35.8602 24.267 35.8602C21.2968 35.8602 18.8612 33.4247 18.8612 30.4545C18.8612 27.4843 21.2968 25.0487 24.267 25.0487Z" fill="#F5F5F5"/>
</svg>
