<svg width="60" height="60" viewBox="0 0 60 60" fill="none" xmlns="http://www.w3.org/2000/svg">
<circle cx="30" cy="30" r="30" fill="#3583DC"/>
<g clip-path="url(#clip0_4606_1002)">
<path d="M44.9951 27.7689C44.9696 27.526 44.8447 27.3044 44.65 27.157L42.2736 25.3569L43.1382 22.504C43.2091 22.2702 43.18 22.0175 43.0579 21.8059C42.9358 21.5944 42.7315 21.4429 42.4936 21.3873L39.5904 20.7095L39.2198 17.7515C39.1895 17.5091 39.0602 17.2901 38.8625 17.1466C38.665 17.003 38.4167 16.9475 38.1769 16.9936L35.249 17.5552L33.7072 15.0037C33.5808 14.7947 33.3736 14.6473 33.1347 14.5965C32.8957 14.5457 32.6465 14.596 32.446 14.7357L29.9999 16.4395L27.5537 14.7357C27.3532 14.5962 27.1039 14.5458 26.865 14.5966C26.6261 14.6473 26.4189 14.7947 26.2926 15.0039L24.7509 17.5554L21.8231 16.9938C21.5832 16.9479 21.335 17.0032 21.1374 17.1468C20.9398 17.2904 20.8104 17.5093 20.7801 17.7517L20.4095 20.7097L17.5063 21.3875C17.2684 21.4431 17.0642 21.5946 16.9421 21.8061C16.82 22.0177 16.7909 22.2703 16.8617 22.504L17.7262 25.357L15.35 27.157C15.1553 27.3044 15.0303 27.5259 15.0049 27.7689C14.9793 28.0118 15.0554 28.2544 15.2153 28.4392L17.1653 30.6939L15.7266 33.3048C15.6087 33.5187 15.5846 33.7719 15.6601 34.0042C15.7356 34.2364 15.9039 34.4272 16.125 34.5309L18.8236 35.7975L18.5711 38.768C18.5504 39.0114 18.6313 39.2525 18.7949 39.434C18.9582 39.6155 19.1896 39.7212 19.4338 39.7261L22.4144 39.7856L23.3919 42.6018C23.4719 42.8325 23.644 43.0199 23.8671 43.1192C24.0903 43.2187 24.3446 43.2211 24.5697 43.1263L27.3169 41.9683L29.3554 44.1435C29.5224 44.3218 29.7558 44.4229 30 44.4229C30.2443 44.4229 30.4776 44.3218 30.6446 44.1435L32.6832 41.9683L35.4302 43.1263C35.6552 43.221 35.9096 43.2185 36.1327 43.1192C36.3558 43.0199 36.5279 42.8327 36.608 42.6019L37.5855 39.7856L40.5661 39.7261C40.8102 39.7213 41.0416 39.6155 41.205 39.434C41.3684 39.2525 41.4494 39.0114 41.4288 38.768L41.1763 35.7975L43.875 34.5309C44.0962 34.4272 44.2645 34.2364 44.3399 34.0042C44.4154 33.772 44.3914 33.5187 44.2734 33.3047L42.8345 30.6939L44.7848 28.4391C44.9445 28.2545 45.0206 28.0118 44.9951 27.7689ZM29.9999 37.9538C25.3384 37.9538 21.5461 34.1614 21.5461 29.5C21.5461 24.8386 25.3385 21.0462 29.9999 21.0462C34.6614 21.0462 38.4537 24.8386 38.4537 29.5C38.4537 34.1614 34.6614 37.9538 29.9999 37.9538Z" fill="white"/>
<path d="M29.9998 22.8131C26.3127 22.8131 23.313 25.8128 23.313 29.4999C23.313 33.1871 26.3128 36.1868 29.9998 36.1868C33.6871 36.1868 36.6867 33.1871 36.6867 29.4999C36.6867 25.8128 33.687 22.8131 29.9998 22.8131ZM33.4634 28.2322L29.6783 32.0173C29.5058 32.1898 29.2797 32.2761 29.0536 32.2761C28.8275 32.2761 28.6014 32.1898 28.429 32.0173L26.5363 30.1247C26.1913 29.7797 26.1913 29.2203 26.5363 28.8753C26.8812 28.5303 27.4407 28.5302 27.7857 28.8753L29.0536 30.1431L32.214 26.9828C32.559 26.6378 33.1184 26.6377 33.4635 26.9828C33.8084 27.3278 33.8084 27.8872 33.4634 28.2322Z" fill="white"/>
</g>
<defs>
<clipPath id="clip0_4606_1002">
<rect width="30" height="30" fill="white" transform="translate(15 14.5)"/>
</clipPath>
</defs>
</svg>
