<svg width="60" height="60" viewBox="0 0 60 60" fill="none" xmlns="http://www.w3.org/2000/svg">
<circle cx="30" cy="30" r="30" fill="#3583DC"/>
<g clip-path="url(#clip0_4606_1030)">
<path d="M23.1592 16.5H36.8408V21.1875H23.1592V16.5Z" fill="#F5F5F5"/>
<path d="M15 26.7539H22.2803V30.5625H15V26.7539Z" fill="#F5F5F5"/>
<path d="M15 22.0664H29.5605V25.875H15V22.0664Z" fill="#F5F5F5"/>
<path d="M43.3887 16.5H37.7197V21.1875H45V18.1113C44.9994 17.6842 44.8294 17.2747 44.5274 16.9726C44.2253 16.6706 43.8158 16.5006 43.3887 16.5Z" fill="#F5F5F5"/>
<path d="M36.8408 30.5625V26.7539H23.1592V30.5625H23.2729L24.2941 29.5412C24.4778 29.357 24.7122 29.2315 24.9674 29.1809L30.6082 28.0523C30.7643 28.0213 30.9231 28.0056 31.0822 28.0055C31.4111 28.0056 31.7365 28.073 32.0384 28.2035C32.3403 28.334 32.6124 28.5248 32.8378 28.7643C33.0632 29.0038 33.2373 29.2869 33.3493 29.5961C33.4614 29.9053 33.509 30.2342 33.4893 30.5625H36.8408Z" fill="#F5F5F5"/>
<path d="M37.7197 26.7539H45V30.5625H37.7197V26.7539Z" fill="#F5F5F5"/>
<path d="M16.6113 36.1289H19.0236C18.9826 35.7587 19.0255 35.384 19.1489 35.0325C19.2723 34.6811 19.4732 34.3619 19.7367 34.0986L22.3939 31.4414H15V34.5176C15.0006 34.9447 15.1706 35.3542 15.4726 35.6563C15.7747 35.9583 16.1842 36.1283 16.6113 36.1289Z" fill="#F5F5F5"/>
<path d="M32.4023 36.1289H43.3887C43.8158 36.1283 44.2253 35.9583 44.5274 35.6563C44.8294 35.3542 44.9994 34.9447 45 34.5176V31.4414H33.3398L32.4023 36.1289Z" fill="#F5F5F5"/>
<path d="M22.2803 16.5H16.6113C16.1842 16.5006 15.7747 16.6706 15.4726 16.9726C15.1706 17.2747 15.0006 17.6842 15 18.1113V21.1875H22.2803V16.5Z" fill="#F5F5F5"/>
<path d="M30.4395 22.0664H45V25.875H30.4395V22.0664Z" fill="#F5F5F5"/>
<path d="M15.3861 44.2494C15.1389 44.4967 15 44.832 15 45.1816C15 45.5313 15.1389 45.8666 15.3861 46.1139C15.6334 46.3611 15.9687 46.5 16.3184 46.5C16.668 46.5 17.0034 46.3611 17.2506 46.1139L19.8399 43.5246L17.9754 41.6602L15.3861 44.2494Z" fill="#F5F5F5"/>
<path d="M32.1681 29.332C31.9896 29.1533 31.7696 29.0215 31.5279 28.9483C31.2861 28.8751 31.03 28.8628 30.7823 28.9125L25.1421 30.0404C25.0573 30.0567 24.979 30.0974 24.9171 30.1576L20.3579 34.7227C20.0562 35.0251 19.8867 35.4348 19.8867 35.862C19.8867 36.2892 20.0562 36.699 20.3579 37.0014L22.1187 38.7592L24.2942 36.5842C24.3345 36.541 24.383 36.5064 24.4369 36.4824C24.4908 36.4583 24.549 36.4454 24.608 36.4444C24.667 36.4433 24.7256 36.4542 24.7803 36.4763C24.8351 36.4984 24.8848 36.5313 24.9265 36.573C24.9682 36.6148 25.0011 36.6645 25.0232 36.7192C25.0453 36.7739 25.0562 36.8325 25.0551 36.8915C25.0541 36.9505 25.0412 37.0087 25.0172 37.0626C24.9931 37.1165 24.9585 37.1651 24.9153 37.2053L22.7403 39.3815L24.5011 41.1422C24.8035 41.4439 25.2132 41.6134 25.6404 41.6134C26.0676 41.6134 26.4774 41.4439 26.7798 41.1422L31.3378 36.5848C31.3989 36.5231 31.4407 36.4449 31.4579 36.3598L32.5858 30.7195C32.6361 30.4718 32.6242 30.2154 32.5513 29.9733C32.4784 29.7312 32.3468 29.5109 32.1681 29.332Z" fill="#F5F5F5"/>
<path d="M21.0832 39.7957L20.5664 39.2777C20.4712 39.1824 20.3582 39.1068 20.2338 39.0553C20.1094 39.0037 19.976 38.9771 19.8413 38.9771C19.7066 38.9771 19.5733 39.0037 19.4488 39.0553C19.3244 39.1068 19.2114 39.1824 19.1162 39.2777L18.2865 40.1063C18.2457 40.1471 18.2133 40.1955 18.1912 40.2489C18.1691 40.3022 18.1577 40.3594 18.1577 40.4171C18.1577 40.4748 18.1691 40.532 18.1912 40.5853C18.2133 40.6387 18.2457 40.6871 18.2865 40.7279L20.7721 43.2135C20.8129 43.2543 20.8613 43.2867 20.9147 43.3088C20.968 43.3309 21.0252 43.3423 21.0829 43.3423C21.1406 43.3423 21.1978 43.3309 21.2512 43.3088C21.3045 43.2867 21.3529 43.2543 21.3938 43.2135L22.2223 42.385C22.3176 42.2898 22.3932 42.1768 22.4447 42.0523C22.4963 41.9279 22.5229 41.7945 22.5229 41.6599C22.5229 41.5252 22.4963 41.3918 22.4447 41.2674C22.3932 41.143 22.3176 41.0299 22.2223 40.9348L21.7043 40.4168L22.7402 39.3814L22.1186 38.7598L21.0832 39.7957Z" fill="#F5F5F5"/>
</g>
<defs>
<clipPath id="clip0_4606_1030">
<rect width="30" height="30" fill="white" transform="translate(15 16.5)"/>
</clipPath>
</defs>
</svg>
