<svg width="70" height="70" viewBox="0 0 70 70" fill="none" xmlns="http://www.w3.org/2000/svg">
<path d="M17.5481 45.5985L12.1221 48.661C11.8694 48.8037 11.6838 49.0409 11.606 49.3205C11.5283 49.6001 11.5648 49.8991 11.7075 50.1517C11.8502 50.4044 12.0875 50.59 12.3671 50.6678C12.6466 50.7455 12.9456 50.709 13.1983 50.5663L18.6244 47.5038C18.8326 47.3859 19.0736 47.3394 19.3107 47.3716C19.5478 47.4038 19.7677 47.5129 19.9369 47.6821L20.8535 48.5986C20.9551 48.7002 21.0757 48.7807 21.2085 48.8356C21.3412 48.8906 21.4835 48.9188 21.6271 48.9188C21.7708 48.9187 21.913 48.8904 22.0457 48.8353C22.1784 48.7803 22.299 48.6997 22.4006 48.5981C22.5021 48.4965 22.5827 48.3758 22.6376 48.2431C22.6925 48.1103 22.7208 47.9681 22.7207 47.8244C22.7207 47.6807 22.6923 47.5385 22.6373 47.4058C22.5823 47.2731 22.5016 47.1525 22.4 47.051L21.4835 46.1355C20.9757 45.6293 20.3164 45.3028 19.606 45.2059C18.8956 45.1089 18.173 45.2468 17.5481 45.5985Z" fill="#3583DC"/>
<path d="M33.6032 42.63L67.6188 7.15751C69.1501 5.56392 69.3393 3.3097 68.0563 2.02782C66.5612 0.530478 64.3124 0.969072 62.8424 2.38001L27.3699 36.3956L27.1162 36.1419C26.8182 35.8511 26.461 35.6282 26.0689 35.4883C25.6768 35.3484 25.2591 35.2949 24.8445 35.3314C24.0127 35.4044 23.2341 35.7712 22.6482 36.3661L19.6087 39.4067L1.6493 49.5589C1.50264 49.6419 1.37715 49.7577 1.2826 49.8972C1.18806 50.0366 1.12703 50.1961 1.10426 50.3631C1.0815 50.53 1.09762 50.7 1.15138 50.8597C1.20513 51.0194 1.29506 51.1645 1.41414 51.2838L6.13258 56C6.25948 56.1269 6.41566 56.2206 6.58732 56.2728C6.75899 56.3251 6.94088 56.3343 7.11695 56.2997L11.4384 55.4356L9.2782 57.6024C9.07316 57.8075 8.95797 58.0856 8.95797 58.3756C8.95797 58.6657 9.07316 58.9438 9.2782 59.1489L18.7162 68.5858C18.8354 68.7049 18.9805 68.7948 19.1402 68.8486C19.2999 68.9023 19.4699 68.9184 19.6369 68.8957C19.8038 68.8729 19.9633 68.8119 20.1028 68.7173C20.2423 68.6228 20.358 68.4973 20.441 68.3506L30.5921 50.3913L33.6327 47.3517C34.2277 46.766 34.5942 45.9873 34.6663 45.1555C34.7034 44.7408 34.6503 44.3231 34.5106 43.9309C34.3709 43.5388 34.1479 43.1815 33.857 42.8838L33.6032 42.63ZM64.3562 3.95938C64.9512 3.38845 65.9235 2.98595 66.5109 3.57438C66.8762 3.9397 66.7734 4.87923 66.0406 5.64376L32.0566 41.0813L28.9165 37.9411L64.3562 3.95938ZM19.2499 66.022L15.5312 62.3033L19.4763 58.357C19.5808 58.2561 19.6641 58.1355 19.7214 58.002C19.7788 57.8686 19.8089 57.725 19.8102 57.5798C19.8115 57.4346 19.7838 57.2906 19.7288 57.1562C19.6738 57.0217 19.5926 56.8996 19.4899 56.7969C19.3872 56.6942 19.2651 56.613 19.1307 56.558C18.9962 56.503 18.8522 56.4753 18.707 56.4766C18.5618 56.4779 18.4182 56.508 18.2848 56.5654C18.1514 56.6227 18.0307 56.706 17.9298 56.8105L13.9846 60.7567L11.5937 58.3756L15.5399 54.4294C15.705 54.2635 15.8126 54.049 15.8468 53.8174C15.8809 53.5859 15.8399 53.3495 15.7297 53.143C15.6196 52.9364 15.446 52.7707 15.2347 52.6702C15.0233 52.5696 14.7853 52.5395 14.5555 52.5842L7.2657 54.0422L3.98445 50.7544L20.0954 41.6478L28.3576 49.91L19.2499 66.022ZM32.0905 45.8052L29.7171 48.1775L21.8268 40.2872L24.1991 37.9149C24.571 37.543 25.2295 37.345 25.574 37.6895L32.3148 44.4303C32.656 44.7759 32.4548 45.4355 32.0862 45.8052H32.0905Z" fill="#3583DC"/>
<path d="M67.8125 54.6875C64.9127 54.6843 62.1325 53.531 60.082 51.4805C58.0315 49.43 56.8782 46.6498 56.875 43.75C56.875 43.4599 56.7598 43.1817 56.5546 42.9766C56.3495 42.7715 56.0713 42.6562 55.7812 42.6562C55.4912 42.6562 55.213 42.7715 55.0079 42.9766C54.8027 43.1817 54.6875 43.4599 54.6875 43.75C54.6846 46.6499 53.5313 49.4302 51.4808 51.4808C49.4302 53.5313 46.6499 54.6846 43.75 54.6875C43.4599 54.6875 43.1817 54.8027 42.9766 55.0079C42.7715 55.213 42.6562 55.4912 42.6562 55.7812C42.6562 56.0713 42.7715 56.3495 42.9766 56.5546C43.1817 56.7598 43.4599 56.875 43.75 56.875C46.6499 56.8779 49.4302 58.0312 51.4808 60.0817C53.5313 62.1323 54.6846 64.9126 54.6875 67.8125C54.6875 68.1026 54.8027 68.3808 55.0079 68.5859C55.213 68.791 55.4912 68.9062 55.7812 68.9062C56.0713 68.9062 56.3495 68.791 56.5546 68.5859C56.7598 68.3808 56.875 68.1026 56.875 67.8125C56.8782 64.9127 58.0315 62.1325 60.082 60.082C62.1325 58.0315 64.9127 56.8782 67.8125 56.875C68.1026 56.875 68.3808 56.7598 68.5859 56.5546C68.791 56.3495 68.9062 56.0713 68.9062 55.7812C68.9062 55.4912 68.791 55.213 68.5859 55.0079C68.3808 54.8027 68.1026 54.6875 67.8125 54.6875ZM55.7812 62.5625C54.451 59.5318 52.0307 57.1115 49 55.7812C52.0306 54.4508 54.4508 52.0306 55.7812 49C57.1119 52.0304 59.5321 54.4506 62.5625 55.7812C59.531 57.113 57.1106 59.5354 55.7812 62.568V62.5625Z" fill="#3583DC"/>
<path d="M18.5938 13.125C20.9136 13.1276 23.1377 14.0503 24.7781 15.6907C26.4184 17.3311 27.3411 19.5552 27.3438 21.875C27.3437 22.1651 27.459 22.4433 27.6641 22.6484C27.8692 22.8535 28.1474 22.9688 28.4375 22.9688C28.7276 22.9688 29.0058 22.8535 29.2109 22.6484C29.416 22.4433 29.5312 22.1651 29.5312 21.875C29.5339 19.5552 30.4566 17.3311 32.0969 15.6907C33.7373 14.0503 35.9614 13.1276 38.2812 13.125C38.5713 13.125 38.8495 13.0098 39.0546 12.8046C39.2598 12.5995 39.375 12.3213 39.375 12.0312C39.375 11.7412 39.2598 11.463 39.0546 11.2579C38.8495 11.0527 38.5713 10.9375 38.2812 10.9375C35.9613 10.9352 33.7371 10.0126 32.0966 8.37213C30.4562 6.73168 29.5336 4.50743 29.5312 2.1875C29.5312 1.89742 29.416 1.61922 29.2109 1.4141C29.0058 1.20898 28.7276 1.09375 28.4375 1.09375C28.1474 1.09375 27.8692 1.20898 27.6641 1.4141C27.459 1.61922 27.3438 1.89742 27.3438 2.1875C27.3414 4.50743 26.4188 6.73168 24.7784 8.37213C23.1379 10.0126 20.9137 10.9352 18.5938 10.9375C18.3037 10.9375 18.0255 11.0527 17.8204 11.2579C17.6152 11.463 17.5 11.7412 17.5 12.0312C17.5 12.3213 17.6152 12.5995 17.8204 12.8046C18.0255 13.0098 18.3037 13.125 18.5938 13.125ZM28.4375 6.95297C29.5144 9.16627 31.3025 10.9544 33.5158 12.0312C31.3029 13.1087 29.515 14.8967 28.4375 17.1095C27.3593 14.8972 25.5716 13.1094 23.3592 12.0312C25.5721 10.9538 27.36 9.16582 28.4375 6.95297Z" fill="#3583DC"/>
<path d="M2.1875 31.7188C3.63737 31.7205 5.02736 32.2972 6.05257 33.3224C7.07779 34.3476 7.65451 35.7376 7.65625 37.1875C7.65625 37.4776 7.77148 37.7558 7.9766 37.9609C8.18172 38.166 8.45992 38.2812 8.75 38.2812C9.04008 38.2812 9.31828 38.166 9.5234 37.9609C9.72852 37.7558 9.84375 37.4776 9.84375 37.1875C9.84549 35.7376 10.4222 34.3476 11.4474 33.3224C12.4726 32.2972 13.8626 31.7205 15.3125 31.7188C15.6026 31.7187 15.8808 31.6035 16.0859 31.3984C16.291 31.1933 16.4062 30.9151 16.4062 30.625C16.4062 30.3349 16.291 30.0567 16.0859 29.8516C15.8808 29.6465 15.6026 29.5312 15.3125 29.5312C13.8626 29.5295 12.4726 28.9528 11.4474 27.9276C10.4222 26.9024 9.84549 25.5124 9.84375 24.0625C9.84375 23.7724 9.72852 23.4942 9.5234 23.2891C9.31828 23.084 9.04008 22.9688 8.75 22.9688C8.45992 22.9688 8.18172 23.084 7.9766 23.2891C7.77148 23.4942 7.65625 23.7724 7.65625 24.0625C7.65451 25.5124 7.07779 26.9024 6.05257 27.9276C5.02736 28.9528 3.63737 29.5295 2.1875 29.5312C1.89742 29.5312 1.61922 29.6465 1.4141 29.8516C1.20898 30.0567 1.09375 30.3349 1.09375 30.625C1.09375 30.9151 1.20898 31.1933 1.4141 31.3984C1.61922 31.6035 1.89742 31.7188 2.1875 31.7188ZM8.75 28C9.3981 29.0758 10.2992 29.9769 11.375 30.625C10.2996 31.2735 9.39852 32.1746 8.75 33.25C8.10137 32.1746 7.20036 31.2736 6.125 30.625C7.20069 29.9768 8.10179 29.0757 8.75 28Z" fill="#3583DC"/>
</svg>
