<svg width="70" height="70" viewBox="0 0 70 70" fill="none" xmlns="http://www.w3.org/2000/svg">
<g clip-path="url(#clip0_4606_1437)">
<path d="M4.57257 49.7033C5.57568 49.7815 6.55144 49.4638 7.31747 48.8082L17.0968 40.4258C17.4575 40.1358 17.7572 39.7878 17.9863 39.3963L18.5789 39.893L16.8261 47.3688C16.5973 48.3507 16.7647 49.363 17.2973 50.2193C17.8298 51.0755 18.664 51.6729 19.6459 51.9016C19.9329 51.9684 20.2222 52.0014 20.5095 52.0014C21.2059 52.0014 21.8903 51.8074 22.4963 51.4303C23.3524 50.8977 23.9499 50.0635 24.1783 49.0831L26.4599 39.3493C26.7836 37.9548 26.3031 36.518 25.2064 35.6003L20.336 31.5175L21.2743 28.2439L23.0889 29.5708C23.9121 30.1926 24.9668 30.4518 25.9852 30.2822L32.2968 29.2225C34.3487 28.8806 35.7399 26.9329 35.398 24.8808C35.0561 22.829 33.1096 21.4376 31.0564 21.7796C31.0559 21.7796 31.0555 21.7797 31.0551 21.7797L26.3062 22.5771L21.3523 18.955C20.5398 18.3593 19.5441 18.1156 18.5478 18.269C17.552 18.4224 16.6755 18.9546 16.0798 19.7672C15.8107 20.1343 15.6122 20.5415 15.4898 20.977C14.8351 23.3002 14.1109 25.8464 13.4103 28.3087C12.7376 30.6744 12.0427 33.1168 11.4078 35.3682L2.4131 43.078C1.64775 43.7331 1.18318 44.6467 1.10511 45.6511C1.02704 46.6556 1.34478 47.6301 1.99966 48.3953C2.65454 49.1608 3.56837 49.6252 4.57257 49.7033ZM3.28605 45.8207C3.31872 45.399 3.51396 45.0152 3.83593 44.7396L13.0825 36.8139C13.2463 36.6734 13.365 36.4878 13.4235 36.2801C14.0816 33.9443 14.8101 31.3837 15.5144 28.9073C16.2153 26.4436 16.9399 23.8961 17.5956 21.5697C17.6471 21.3866 17.7307 21.2153 17.8441 21.0604C18.0943 20.719 18.4625 20.4955 18.881 20.4311C19.3001 20.3664 19.7179 20.4691 20.0602 20.72L25.3873 24.615C25.6252 24.7889 25.9231 24.8593 26.2139 24.8108L31.4174 23.9371C32.2796 23.7941 33.0969 24.3786 33.2404 25.2403C33.3841 26.1028 32.7995 26.9212 31.9361 27.065L25.6247 28.1247C25.1899 28.1972 24.756 28.09 24.404 27.8225C24.3987 27.8184 24.3932 27.8143 24.3878 27.8104L21.3005 25.553C21.0123 25.3422 20.6388 25.2853 20.3004 25.4013C19.9623 25.5172 19.7021 25.7909 19.6036 26.1345L18.0376 31.5976C17.9185 32.0131 18.0552 32.4596 18.3864 32.7372L23.8021 37.2772C24.2635 37.6633 24.4656 38.2677 24.3297 38.8522L22.0482 48.5852C21.952 48.9981 21.7008 49.3488 21.3407 49.5729C20.9806 49.7969 20.555 49.8674 20.1421 49.771C19.7292 49.6749 19.3785 49.4236 19.1544 49.0636C18.9305 48.7036 18.8602 48.2779 18.9561 47.8665L20.8622 39.7369C20.9563 39.3351 20.8163 38.9143 20.5 38.649L18.1973 36.7186C17.9977 36.5512 17.7482 36.4629 17.4944 36.4629C17.3867 36.4629 17.278 36.4789 17.1723 36.5114C16.8175 36.6208 16.5426 36.9026 16.4418 37.2598L16.257 37.9155C16.1665 38.2385 15.9804 38.519 15.7188 38.7268C15.7082 38.7353 15.6978 38.7439 15.6875 38.7527L5.89464 47.1466C5.57308 47.4217 5.16361 47.555 4.74224 47.5222C4.32046 47.4894 3.93656 47.2943 3.66161 46.9729C3.38667 46.6519 3.25324 46.2425 3.28605 45.8207ZM23.8972 18.8926C26.9797 18.8926 29.4875 16.3848 29.4875 13.3023C29.4875 10.2199 26.9797 7.71204 23.8972 7.71204C20.8148 7.71204 18.3069 10.2199 18.3069 13.3023C18.3069 16.3848 20.8148 18.8926 23.8972 18.8926ZM23.8972 9.89954C25.7735 9.89954 27.3 11.426 27.3 13.3023C27.3 15.1787 25.7735 16.7051 23.8972 16.7051C22.0209 16.7051 20.4944 15.1787 20.4944 13.3023C20.4944 11.426 22.0209 9.89954 23.8972 9.89954ZM66.4382 54.8926H3.80066C2.43976 54.8926 1.33261 55.9997 1.33261 57.3605V59.8201C1.33261 61.181 2.43976 62.288 3.80066 62.288H66.4382C67.7991 62.288 68.9063 61.1808 68.9063 59.8201V57.3605C68.9063 55.9996 67.7991 54.8926 66.4382 54.8926ZM66.7188 59.8201C66.7188 59.9721 66.5904 60.1005 66.4382 60.1005H3.80066C3.64863 60.1005 3.52011 59.9721 3.52011 59.8201V57.3605C3.52011 57.2085 3.64849 57.0801 3.80066 57.0801H66.4382C66.5902 57.0801 66.7188 57.2085 66.7188 57.3605V59.8201ZM50.7227 26.0351C46.3243 26.0351 42.7458 29.6134 42.7458 34.0118C42.7458 38.4102 46.3243 41.9885 50.7227 41.9885C55.121 41.9885 58.6995 38.4102 58.6995 34.0118C58.6995 29.6134 55.121 26.0351 50.7227 26.0351ZM50.7227 39.8012C47.5304 39.8012 44.9333 37.204 44.9333 34.0119C44.9333 30.8198 47.5304 28.2227 50.7227 28.2227C53.9149 28.2227 56.512 30.8198 56.512 34.0119C56.512 37.204 53.9149 39.8012 50.7227 39.8012ZM68.0328 30.9866L63.7436 30.1048C63.4802 29.2249 63.1284 28.3756 62.6925 27.5673L65.1019 23.911C65.3877 23.4775 65.3292 22.9029 64.9622 22.5358L62.1988 19.7724C61.8316 19.4052 61.257 19.3469 60.8235 19.6325L57.1672 22.0421C56.3589 21.6062 55.5096 21.2543 54.6295 20.991L53.748 16.7018C53.6434 16.1934 53.1959 15.8283 52.6767 15.8283H48.7687C48.2496 15.8283 47.8019 16.1932 47.6974 16.7018L46.8157 20.991C45.9356 21.2544 45.0864 21.6062 44.2782 22.0421L40.6219 19.6325C40.1884 19.3468 39.6136 19.4053 39.2465 19.7724L36.4831 22.5358C36.116 22.9029 36.0577 23.4775 36.3434 23.911L38.7528 27.5673C38.3169 28.3757 37.965 29.225 37.7017 30.1048L33.4126 30.9866C32.9041 31.0912 32.5391 31.5388 32.5391 32.058V35.9658C32.5391 36.4849 32.9041 36.9325 33.4126 37.0371L37.7017 37.919C37.9652 38.7989 38.3169 39.6482 38.7528 40.4565L36.3434 44.1127C36.0577 44.5463 36.1162 45.1209 36.4831 45.488L39.2465 48.2513C39.6136 48.6184 40.1884 48.6768 40.6219 48.3912L44.2782 45.9817C45.0866 46.4177 45.9357 46.7694 46.8157 47.0329L47.6974 51.3219C47.8019 51.8305 48.2496 52.1954 48.7687 52.1954H52.6767C53.1959 52.1954 53.6434 51.8304 53.748 51.3219L54.6295 47.0329C55.5096 46.7694 56.3588 46.4177 57.1672 45.9817L60.8235 48.3912C61.257 48.6768 61.8316 48.6184 62.1988 48.2513L64.9622 45.488C65.3293 45.1209 65.3877 44.5463 65.1019 44.1127L62.6925 40.4565C63.1284 39.648 63.4803 38.7987 63.7436 37.919L68.0328 37.0371C68.5412 36.9325 68.9063 36.4849 68.9063 35.9658V32.058C68.9063 31.5388 68.5412 31.0912 68.0328 30.9866ZM66.7188 35.0741L62.6444 35.9116C62.2303 35.9968 61.9022 36.3131 61.8021 36.7239C61.5262 37.8551 61.0797 38.9333 60.4745 39.9284C60.255 40.2898 60.2632 40.7455 60.4959 41.0985L62.7845 44.5717L61.2824 46.0738L57.8094 43.785C57.4561 43.5524 57.0005 43.5441 56.6392 43.7638C55.6443 44.3688 54.566 44.8155 53.4345 45.0914C53.0236 45.1916 52.7074 45.5196 52.6224 45.9338L51.785 50.008H49.6604L48.8228 45.9338C48.7377 45.5197 48.4214 45.1916 48.0107 45.0915C46.8794 44.8156 45.8012 44.3689 44.8062 43.764C44.4448 43.5442 43.9893 43.5526 43.636 43.7851L40.1629 46.0739L38.6608 44.5718L40.9495 41.0986C41.1822 40.7455 41.1905 40.2898 40.9707 39.9284C40.3657 38.9337 39.9192 37.8555 39.6433 36.724C39.5432 36.3132 39.2151 35.997 38.8009 35.9118L34.7266 35.0741V32.9498L38.8009 32.1122C39.2151 32.0271 39.5432 31.7108 39.6433 31.3C39.9192 30.1688 40.3657 29.0906 40.9708 28.0954C41.1904 27.7341 41.1822 27.2784 40.9495 26.9254L38.6608 23.4522L40.1629 21.9501L43.636 24.2389C43.9893 24.4716 44.4448 24.4798 44.8062 24.2601C45.8009 23.6552 46.8791 23.2086 48.0107 22.9325C48.4216 22.8323 48.7377 22.5043 48.8228 22.0902L49.6604 18.016H51.7848L52.6222 22.0902C52.7073 22.5043 53.0236 22.8324 53.4344 22.9325C54.5658 23.2086 55.6441 23.6552 56.639 24.2601C57.0004 24.4798 57.4559 24.4714 57.8092 24.2389L61.2823 21.9501L62.7844 23.4522L60.4957 26.9254C60.263 27.2785 60.2547 27.7342 60.4745 28.0956C61.0795 29.0903 61.526 30.1685 61.8019 31.3C61.902 31.7108 62.2302 32.0271 62.6443 32.1122L66.7188 32.9496V35.0741Z" fill="#3583DC"/>
</g>
<defs>
<clipPath id="clip0_4606_1437">
<rect width="70" height="70" fill="white"/>
</clipPath>
</defs>
</svg>
