<svg width="70" height="70" viewBox="0 0 70 70" fill="none" xmlns="http://www.w3.org/2000/svg">
<g clip-path="url(#clip0_4606_1440)">
<g clip-path="url(#clip1_4606_1440)">
<path d="M24.1151 20.3303C33.9813 20.3303 42.0085 28.3568 42.0087 38.2229V67.8323C42.0087 68.3536 41.5863 68.7775 41.0634 68.7776H7.16785C6.64627 68.7776 6.22253 68.3539 6.22253 67.8323V38.2229L6.22839 37.762C6.47393 28.1081 14.4032 20.3305 24.1151 20.3303ZM24.1171 22.2209C15.2927 22.2209 8.11337 29.3999 8.11316 38.2229V66.887H40.118V38.2229C40.1178 29.4 32.94 22.2211 24.1171 22.2209Z" fill="#3583DC" stroke="#3583DC" stroke-width="0.25"/>
<path d="M7.1676 55.0432L7.26428 55.0481C7.74064 55.0965 8.11292 55.4995 8.11292 55.9885V67.8323C8.11292 68.3539 7.68918 68.7776 7.1676 68.7776H4.24768C2.11556 68.7776 0.380493 67.0425 0.380493 64.9104V58.9104C0.380493 56.7783 2.11556 55.0432 4.24768 55.0432H7.1676ZM4.24768 56.9338C3.15739 56.9338 2.27112 57.8214 2.27112 58.9104V64.9104C2.27112 66.0007 3.15734 66.887 4.24768 66.887H6.22229V56.9338H4.24768Z" fill="#3583DC" stroke="#3583DC" stroke-width="0.25"/>
<path d="M43.985 55.0432C46.1171 55.0433 47.8502 56.7784 47.8502 58.9104V64.9104C47.8502 67.0424 46.1171 68.7775 43.985 68.7776H41.0631C40.5415 68.7776 40.1178 68.3539 40.1178 67.8323V55.9885C40.1178 55.467 40.5415 55.0432 41.0631 55.0432H43.985ZM42.0084 66.887H43.985C45.0738 66.8869 45.9596 66.0007 45.9596 64.9104V58.9104C45.9596 57.8214 45.0738 56.9339 43.985 56.9338H42.0084V66.887Z" fill="#3583DC" stroke="#3583DC" stroke-width="0.25"/>
<path d="M32.0797 29.8254C34.4031 29.8257 36.2906 31.7164 36.2906 34.0383V62.4211C36.2906 62.9423 35.869 63.3662 35.3473 63.3665H12.8854C12.3638 63.3665 11.9401 62.9427 11.9401 62.4211V34.0383C11.9401 31.7162 13.8294 29.8254 16.153 29.8254H32.0797ZM16.153 31.7161C14.8726 31.7161 13.8307 32.758 13.8307 34.0383V61.4758H34.402V34.0383C34.402 32.7581 33.3599 31.7163 32.0797 31.7161H16.153Z" fill="#3583DC" stroke="#3583DC" stroke-width="0.25"/>
<path d="M24.1156 34.452C27.7337 34.4521 30.6771 37.3957 30.6771 41.0125C30.677 44.6306 27.7337 47.573 24.1156 47.5731C20.4988 47.5731 17.5552 44.6307 17.5551 41.0125C17.5551 37.3956 20.4987 34.452 24.1156 34.452ZM24.1156 36.3426C21.5405 36.3426 19.4457 38.4374 19.4457 41.0125C19.4458 43.5876 21.5406 45.6834 24.1156 45.6834C26.6906 45.6833 28.7864 43.5875 28.7865 41.0125C28.7865 38.4375 26.6907 36.3427 24.1156 36.3426Z" fill="#3583DC" stroke="#3583DC" stroke-width="0.25"/>
<path d="M24.1154 34.452C24.6384 34.452 25.0607 34.8758 25.0607 35.3973V41.0125C25.0606 41.5339 24.6384 41.9578 24.1154 41.9578C23.5938 41.9578 23.1701 41.534 23.17 41.0125V35.3973C23.17 34.8757 23.5938 34.452 24.1154 34.452Z" fill="#3583DC" stroke="#3583DC" stroke-width="0.25"/>
<path d="M29.2139 15.0858C29.7356 15.0859 30.1572 15.5098 30.1572 16.0311V22.0643C30.1572 22.5855 29.7356 23.0095 29.2139 23.0096C28.6908 23.0096 28.2686 22.5857 28.2686 22.0643V16.9764H19.9639V22.0643C19.9639 22.5858 19.5401 23.0096 19.0186 23.0096C18.497 23.0096 18.0732 22.5858 18.0732 22.0643V16.0311C18.0732 15.5095 18.497 15.0858 19.0186 15.0858H29.2139Z" fill="#3583DC" stroke="#3583DC" stroke-width="0.25"/>
<path d="M24.1155 -0.77771C25.9372 -0.77771 27.4202 0.704161 27.4202 2.526V16.0309C27.4202 16.554 26.9963 16.9762 26.4749 16.9762H21.7571C21.2356 16.9762 20.8118 16.554 20.8118 16.0309V2.526C20.8118 0.704231 22.2937 -0.77771 24.1155 -0.77771ZM24.1155 1.11292C23.3369 1.11292 22.7024 1.74738 22.7024 2.526V15.0856H25.5295V2.526C25.5295 1.74745 24.8955 1.11292 24.1155 1.11292Z" fill="#3583DC" stroke="#3583DC" stroke-width="0.25"/>
<path d="M35.3473 50.2649C35.8687 50.2651 36.2926 50.6888 36.2926 51.2102V58.5383C36.2926 59.0613 35.8686 59.4834 35.3473 59.4836H12.8854C12.3624 59.4836 11.9401 59.0613 11.9401 58.5383V51.2102C11.9401 50.6888 12.3623 50.2649 12.8854 50.2649H35.3473ZM13.8307 57.593H34.402V52.1555H13.8307V57.593Z" fill="#3583DC" stroke="#3583DC" stroke-width="0.25"/>
<path d="M26.2294 2.5061C26.7336 2.3706 27.252 2.67021 27.3876 3.17407C27.5147 3.64696 27.2593 4.13269 26.8114 4.30298L26.7196 4.33228L22.0018 5.59692C21.919 5.61922 21.8366 5.62915 21.7557 5.62915C21.3397 5.62915 20.9572 5.35014 20.8436 4.92798V4.927C20.71 4.4233 21.0084 3.90491 21.5126 3.77075L26.2294 2.5061Z" fill="#3583DC" stroke="#3583DC" stroke-width="0.25"/>
<path d="M26.2294 6.60358C26.7336 6.46808 27.252 6.76768 27.3876 7.27155C27.5147 7.74444 27.2593 8.23016 26.8114 8.40045L26.7196 8.42975L22.0018 9.6944L21.9989 9.69537C21.9191 9.71528 21.838 9.72662 21.7557 9.72662C21.3397 9.72662 20.9572 9.44761 20.8436 9.02545V9.02448C20.71 8.52078 21.0084 8.00238 21.5126 7.86823L26.2294 6.60358Z" fill="#3583DC" stroke="#3583DC" stroke-width="0.25"/>
<path d="M26.2294 10.6026C26.7336 10.4671 27.252 10.7667 27.3876 11.2706C27.5147 11.7435 27.2593 12.2292 26.8114 12.3995L26.7196 12.4288L22.0018 13.6934L21.9989 13.6944C21.9192 13.7143 21.8377 13.7256 21.7567 13.7256C21.3396 13.7255 20.9572 13.4466 20.8436 13.0245V13.0235C20.71 12.5198 21.0084 12.0014 21.5126 11.8672L26.2294 10.6026Z" fill="#3583DC" stroke="#3583DC" stroke-width="0.25"/>
<path d="M52.9166 3.67932C57.2335 3.67932 60.7457 7.19154 60.7457 11.5084V32.7516C60.7457 33.2732 60.322 33.6969 59.8004 33.6969C59.2788 33.6969 58.8551 33.2732 58.8551 32.7516V11.5084C58.8551 8.23467 56.1917 5.56995 52.9166 5.56995C49.6429 5.56995 46.9781 8.23469 46.9781 11.5084C46.9781 12.0299 46.5559 12.4537 46.0328 12.4537C45.5113 12.4537 45.0875 12.03 45.0875 11.5084C45.0875 7.19154 48.5997 3.67932 52.9166 3.67932Z" fill="#3583DC" stroke="#3583DC" stroke-width="0.25"/>
<path d="M62.8018 31.8065C63.3234 31.8067 63.7451 32.2306 63.7451 32.7518V55.6443C63.7449 56.1668 63.3232 56.5895 62.8018 56.5897H56.8008C56.278 56.5897 55.8557 56.1671 55.8555 55.6443V32.7518C55.8555 32.2303 56.2777 31.8065 56.8008 31.8065H62.8018ZM57.7461 54.699H61.8564V33.6971H57.7461V54.699Z" fill="#3583DC" stroke="#3583DC" stroke-width="0.25"/>
<path d="M65.7968 54.6987C67.5775 54.6987 69.0272 56.148 69.0272 57.9301V60.2143C69.0272 60.7357 68.6033 61.1594 68.0819 61.1596H51.5194C50.9978 61.1596 50.5741 60.7359 50.5741 60.2143V57.9301C50.5741 56.148 52.0234 54.6987 53.8055 54.6987H65.7968ZM53.8055 56.5893C53.0666 56.5893 52.4647 57.1911 52.4647 57.9301V59.269H67.1366V57.9301C67.1366 57.191 66.5356 56.5893 65.7968 56.5893H53.8055Z" fill="#3583DC" stroke="#3583DC" stroke-width="0.25"/>
<path d="M69.6741 59.2692C70.1956 59.2692 70.6194 59.6929 70.6194 60.2145V64.7867C70.6192 65.3084 70.1952 65.7301 69.6741 65.7301H49.928C49.4068 65.7301 48.9829 65.3084 48.9827 64.7867V60.2145C48.9827 59.6929 49.4064 59.2692 49.928 59.2692H69.6741ZM50.8733 63.8414H68.7288V61.1598H50.8733V63.8414Z" fill="#3583DC" stroke="#3583DC" stroke-width="0.25"/>
<path d="M55.9813 37.6251C56.2426 37.1733 56.8209 37.0168 57.2733 37.2784L63.2743 40.7422V40.7432C63.6962 40.9882 63.8599 41.5111 63.663 41.9473L63.619 42.0333C63.4439 42.3376 63.1252 42.5059 62.7997 42.5059C62.639 42.5059 62.4768 42.4648 62.329 42.3799L56.328 38.9151C55.8761 38.6537 55.7215 38.0758 55.9813 37.6251Z" fill="#3583DC" stroke="#3583DC" stroke-width="0.25"/>
<path d="M55.9813 41.9929C56.2428 41.5407 56.8213 41.3863 57.2733 41.6462L63.2743 45.111L63.3553 45.1638C63.7425 45.4443 63.8643 45.979 63.619 46.403C63.444 46.7055 63.1255 46.8757 62.7997 46.8757C62.6389 46.8756 62.4762 46.8345 62.328 46.7477V46.7468L56.328 43.2849C55.8759 43.0233 55.7215 42.4449 55.9813 41.9929Z" fill="#3583DC" stroke="#3583DC" stroke-width="0.25"/>
<path d="M55.9813 46.3627C56.2426 45.9109 56.8209 45.7545 57.2733 46.0161L63.2743 49.4799V49.4809C63.6964 49.726 63.86 50.2479 63.663 50.685L63.619 50.7709C63.4439 51.0752 63.1252 51.2436 62.7997 51.2436C62.6401 51.2435 62.4777 51.2044 62.329 51.1176L56.328 47.6528C55.8758 47.3925 55.7217 46.8145 55.9813 46.3627Z" fill="#3583DC" stroke="#3583DC" stroke-width="0.25"/>
<path d="M4.31177 55.0432C4.83334 55.0432 5.25708 55.467 5.25708 55.9885V67.8323C5.25708 68.3539 4.83334 68.7776 4.31177 68.7776C3.79019 68.7776 3.36646 68.3539 3.36646 67.8323V55.9885C3.36646 55.467 3.79019 55.0432 4.31177 55.0432Z" fill="#3583DC" stroke="#3583DC" stroke-width="0.25"/>
<path d="M43.9192 55.0432C44.4423 55.0432 44.8645 55.4671 44.8645 55.9885V67.8323C44.8645 68.3537 44.4423 68.7776 43.9192 68.7776C43.3976 68.7776 42.9739 68.3539 42.9739 67.8323V55.9885C42.9739 55.467 43.3976 55.0432 43.9192 55.0432Z" fill="#3583DC" stroke="#3583DC" stroke-width="0.25"/>
</g>
</g>
<defs>
<clipPath id="clip0_4606_1440">
<rect width="70" height="70" fill="white"/>
</clipPath>
<clipPath id="clip1_4606_1440">
<rect width="70" height="70" fill="white" transform="translate(0.5 -1)"/>
</clipPath>
</defs>
</svg>
