<svg width="65" height="70" viewBox="0 0 65 70" fill="none" xmlns="http://www.w3.org/2000/svg">
<path fill-rule="evenodd" clip-rule="evenodd" d="M19.5508 58.7891C15.0391 58.7891 11.3477 54.9609 11.3477 50.5859C11.3477 46.0742 15.0391 42.3828 19.5508 42.3828C24.0625 42.3828 27.7539 46.0742 27.7539 50.5859C27.7539 55.0977 24.0625 58.7891 19.5508 58.7891ZM19.5508 44.2969C16.1328 44.2969 13.3984 47.168 13.3984 50.4492C13.2617 54.0039 15.9961 56.7383 19.5508 56.7383C22.9688 56.7383 25.7031 54.0039 25.7031 50.5859C25.7031 47.168 22.9688 44.2969 19.5508 44.2969Z" fill="#3583DC"/>
<path fill-rule="evenodd" clip-rule="evenodd" d="M22.832 70H16.1328C15.5859 70 15.1758 69.5898 15.1758 68.9062V65.4883C14.082 65.2148 12.9883 64.668 12.0312 64.1211L9.43359 66.582C9.02344 66.9922 8.47656 66.9922 8.06641 66.582L3.28125 61.7969C2.87109 61.5234 2.87109 60.8398 3.28125 60.4297L5.74219 57.9688C5.19531 56.875 4.78516 55.918 4.51172 54.8242H1.09375C0.546875 54.8242 0 54.2773 0 53.7305V47.168C0 46.6211 0.546875 46.0742 1.09375 46.0742H4.51172C4.92188 45.1172 5.33203 44.0234 5.87891 43.0664L3.28125 40.4688C2.87109 40.0586 2.87109 39.5117 3.28125 39.1016L8.06641 34.3164C8.47656 33.9062 9.16016 33.9062 9.57031 34.3164L12.0312 36.7773C12.9883 36.2305 14.082 35.8203 15.1758 35.5469V31.9922C15.1758 31.4453 15.5859 31.0352 16.2695 31.0352H22.9688C23.5156 31.0352 23.9258 31.4453 23.9258 31.9922V35.5469C25.0195 35.8203 26.1133 36.2305 27.0703 36.7773L29.5312 34.3164C29.9414 33.9062 30.625 33.9062 31.0352 34.3164L35.8203 39.1016C36.2305 39.5117 36.2305 40.0586 35.8203 40.4688L33.2227 43.0664C33.7695 44.0234 34.1797 45.1172 34.4531 46.2109H38.0078C38.5547 46.2109 39.1016 46.6211 39.1016 47.168V53.8672C39.1016 54.4141 38.5547 54.9609 38.0078 54.9609H34.4531C34.1797 56.0547 33.7695 57.0117 33.2227 58.1055L35.6836 60.5664C36.0938 60.9766 36.0938 61.5234 35.6836 61.9336L30.8984 66.7188C30.4883 67.1289 29.9414 67.1289 29.5312 66.7188L26.9336 64.2578C25.9766 64.8047 24.8828 65.2148 23.7891 65.625V69.043C23.7891 69.5898 23.3789 70 22.832 70ZM17.0898 67.9492H21.875V64.668C21.875 64.2578 22.1484 63.8477 22.6953 63.7109C24.0625 63.4375 25.4297 62.8906 26.6602 62.0703C27.0703 61.7969 27.4805 61.9336 27.8906 62.207L30.2148 64.5312L33.6328 61.1133L31.3086 58.7891C30.8984 58.5156 30.8984 57.9688 31.1719 57.5586C31.8555 56.3281 32.5391 54.9609 32.8125 53.5938C32.9492 53.1836 33.2227 52.7734 33.7695 52.7734H37.0508V48.125H33.7695C33.2227 48.125 32.9492 47.7148 32.8125 47.3047C32.5391 45.9375 31.8555 44.5703 31.1719 43.3398C30.8984 42.9297 30.8984 42.3828 31.3086 42.1094L33.6328 39.7852L30.2148 36.3672L27.8906 38.6914C27.4805 39.1016 27.0703 39.1016 26.6602 38.8281C25.4297 38.0078 24.0625 37.4609 22.6953 37.1875C22.1484 37.1875 21.875 36.7773 21.875 36.3672V33.0859H17.0898V36.3672C17.0898 36.7773 16.8164 37.1875 16.4062 37.3242C15.0391 37.5977 13.6719 38.2812 12.4414 38.9648C12.0312 39.2383 11.4844 39.2383 11.0742 38.9648L8.75 36.5039L5.46875 39.9219L7.79297 42.2461C8.06641 42.6562 8.20312 43.0664 7.92969 43.4766C7.10938 44.707 6.5625 46.0742 6.15234 47.4414C6.01562 47.9883 5.60547 48.2617 5.19531 48.2617H1.91406V52.9102H5.33203C5.74219 52.9102 6.15234 53.3203 6.28906 53.7305C6.69922 55.0977 7.24609 56.4648 7.92969 57.6953C8.20312 58.1055 8.06641 58.6523 7.79297 58.9258L5.46875 61.25L8.88672 64.668L11.2109 62.3438C11.4844 61.9336 12.0312 61.9336 12.4414 62.207C13.6719 63.0273 15.0391 63.5742 16.4062 63.8477C16.8164 63.9844 17.2266 64.3945 17.2266 64.8047V67.9492H17.0898Z" fill="#3583DC"/>
<path fill-rule="evenodd" clip-rule="evenodd" d="M51.6797 47.8516C48.5352 47.8516 45.9375 45.3906 45.9375 42.2461C45.9375 39.1016 48.5352 36.6406 51.6797 36.6406C54.8242 36.6406 57.2852 39.1016 57.2852 42.2461C57.1484 45.3906 54.6875 47.8516 51.6797 47.8516ZM51.6797 38.5547C49.6289 38.5547 47.9883 40.332 47.9883 42.2461C47.9883 44.2969 49.6289 45.9375 51.6797 45.9375C53.5938 45.9375 55.2344 44.2969 55.2344 42.2461C55.2344 40.1953 53.5938 38.5547 51.6797 38.5547Z" fill="#3583DC"/>
<path fill-rule="evenodd" clip-rule="evenodd" d="M53.7305 55.0977H49.4922C48.9453 55.0977 48.3984 54.6875 48.3984 54.1406V52.0898C47.8516 51.9531 47.3047 51.6797 46.8945 51.4062L45.3906 52.7734C45.2539 52.9102 44.9805 53.0469 44.707 53.0469C44.4336 53.0469 44.1602 52.9102 44.0234 52.7734L41.0156 49.7656C40.6055 49.3555 40.6055 48.6719 41.0156 48.2617L42.5195 46.8945C42.1094 46.3477 41.9727 45.8008 41.8359 45.2539H39.7852C39.2383 45.2539 38.8281 44.8438 38.8281 44.2969V39.9219C38.8281 39.375 39.2383 38.9648 39.7852 38.9648H41.8359C41.9727 38.418 42.2461 37.8711 42.5195 37.3242L41.0156 35.8203C40.6055 35.5469 40.6055 34.8633 41.0156 34.4531L44.0234 31.4453C44.1602 31.1719 44.5703 31.0352 44.707 31.0352C44.9805 31.0352 45.2539 31.1719 45.3906 31.4453L46.8945 32.8125C47.3047 32.5391 47.8516 32.4023 48.3984 32.1289V30.0781C48.3984 29.5312 48.9453 29.1211 49.4922 29.1211H53.7305C54.4141 29.1211 54.8242 29.5312 54.8242 30.0781V32.1289C55.3711 32.2656 55.918 32.5391 56.4648 32.8125L57.832 31.3086C57.9688 31.1719 58.2422 31.0352 58.5156 31.0352C58.7891 31.0352 59.0625 31.1719 59.1992 31.3086L62.207 34.4531C62.6172 34.8633 62.6172 35.4102 62.207 35.8203L60.8398 37.1875C61.1133 37.7344 61.25 38.2812 61.5234 38.8281H63.4375C63.9844 38.8281 64.5312 39.2383 64.5312 39.9219V44.1602C64.5312 44.707 63.9844 45.2539 63.4375 45.2539H61.5234C61.25 45.8008 61.1133 46.3477 60.8398 46.7578L62.207 48.2617C62.6172 48.6719 62.6172 49.2188 62.207 49.6289L59.1992 52.7734C59.0625 52.9102 58.7891 53.0469 58.5156 53.0469C58.2422 53.0469 57.9688 52.9102 57.832 52.7734L56.4648 51.2695C55.918 51.543 55.3711 51.8164 54.8242 51.9531V54.0039C54.8242 54.6875 54.2773 55.0977 53.7305 55.0977ZM50.4492 53.1836H52.7734V51.4062C52.7734 50.8594 53.0469 50.5859 53.457 50.4492C54.4141 50.1758 55.2344 49.9023 55.918 49.3555C56.3281 49.082 56.875 49.2188 57.1484 49.4922L58.5156 50.7227L60.1562 49.082L58.9258 47.8516C58.5156 47.4414 58.5156 47.0312 58.6523 46.6211C59.1992 45.8008 59.6094 44.9805 59.7461 44.1602C59.8828 43.75 60.293 43.3398 60.7031 43.3398H62.4805V41.0156H60.7031C60.293 41.0156 59.8828 40.7422 59.7461 40.332C59.4727 39.5117 59.1992 38.5547 58.6523 37.8711C58.5156 37.4609 58.5156 36.9141 58.9258 36.6406L60.1562 35.4102L58.5156 33.7695L57.1484 35C56.875 35.4102 56.3281 35.4102 55.918 35.1367C55.2344 34.7266 54.4141 34.3164 53.457 34.1797C53.0469 34.043 52.7734 33.6328 52.7734 33.0859V31.4453H50.4492V33.0859C50.4492 33.6328 50.1758 34.043 49.6289 34.1797C48.8086 34.3164 47.9883 34.7266 47.3047 35.1367C46.8945 35.4102 46.3477 35.2734 45.9375 35L44.707 33.7695L43.0664 35.4102L44.2969 36.6406C44.707 36.9141 44.707 37.4609 44.5703 37.8711C44.0234 38.5547 43.75 39.5117 43.4766 40.332C43.4766 40.7422 43.0664 41.0156 42.5195 41.0156H40.7422V43.3398H42.5195C43.0664 43.3398 43.4766 43.75 43.4766 44.1602C43.75 44.9805 44.0234 45.8008 44.5703 46.7578C44.707 47.168 44.707 47.5781 44.2969 47.8516L43.0664 49.2188L44.707 50.8594L45.9375 49.4922C46.3477 49.2188 46.8945 49.2188 47.3047 49.3555C47.9883 49.9023 48.8086 50.1758 49.6289 50.4492C50.1758 50.5859 50.4492 50.8594 50.4492 51.4062V53.1836Z" fill="#3583DC"/>
<path fill-rule="evenodd" clip-rule="evenodd" d="M35.1367 23.2422C31.3086 23.2422 28.1641 20.0977 28.1641 16.1328C28.1641 12.3047 31.3086 9.16016 35.1367 9.16016C38.9648 9.16016 42.1094 12.3047 42.1094 16.1328C42.1094 20.0977 38.9648 23.2422 35.1367 23.2422ZM35.1367 11.2109C32.4023 11.2109 30.0781 13.3984 30.0781 16.1328C30.0781 18.8672 32.2656 21.1914 35.1367 21.1914C37.8711 21.1914 40.0586 19.0039 40.0586 16.1328C40.0586 13.3984 37.8711 11.2109 35.1367 11.2109Z" fill="#3583DC"/>
<path fill-rule="evenodd" clip-rule="evenodd" d="M37.8711 32.4023H32.2656C31.7188 32.4023 31.3086 31.9922 31.3086 31.4453V28.7109C30.4883 28.4375 29.668 28.0273 28.8477 27.6172L26.9336 29.668C26.5234 30.0781 25.9766 30.0781 25.5664 29.668L21.7383 25.8398C21.3281 25.4297 21.3281 24.7461 21.7383 24.3359L23.6523 22.4219C23.2422 21.6016 22.9688 20.7812 22.6953 19.9609H19.8242C19.2773 19.9609 18.8672 19.5508 18.8672 19.0039V13.3984C18.8672 12.8516 19.2773 12.4414 19.8242 12.4414H22.6953C22.832 11.6211 23.2422 10.8008 23.6523 9.98047L21.7383 8.06641C21.3281 7.65625 21.3281 6.97266 21.7383 6.5625L25.5664 2.73438C25.7031 2.46094 25.9766 2.32422 26.25 2.32422C26.5234 2.32422 26.7969 2.46094 26.9336 2.73438L28.8477 4.64844C29.668 4.375 30.4883 3.96484 31.3086 3.69141V0.957031C31.3086 0.410156 31.8555 0 32.4023 0H37.8711C38.418 0 38.9648 0.410156 38.9648 0.957031V3.69141C39.7852 3.96484 40.6055 4.375 41.2891 4.78516L43.2031 2.73438C43.4766 2.59766 43.75 2.46094 43.8867 2.46094C44.1602 2.46094 44.4336 2.59766 44.5703 2.73438L48.5352 6.69922C48.9453 7.10938 48.9453 7.65625 48.5352 8.06641L46.6211 9.98047C46.8945 10.8008 47.3047 11.6211 47.5781 12.4414H50.3125C50.9961 12.4414 51.4062 12.8516 51.4062 13.3984V19.0039C51.4062 19.5508 50.9961 19.9609 50.3125 19.9609H47.5781C47.3047 20.7812 47.0312 21.6016 46.6211 22.4219L48.5352 24.3359C48.9453 24.7461 48.9453 25.4297 48.5352 25.8398L44.5703 29.668C44.4336 29.8047 44.1602 29.9414 43.8867 29.9414C43.6133 29.9414 43.4766 29.8047 43.2031 29.668L41.2891 27.6172C40.4688 28.1641 39.6484 28.4375 38.8281 28.7109V31.4453C38.8281 32.1289 38.418 32.4023 37.8711 32.4023ZM33.3594 30.4883H36.9141V27.8906C36.9141 27.4805 37.1875 27.0703 37.7344 26.9336C38.6914 26.6602 39.7852 26.25 41.0156 25.5664C41.4258 25.293 41.8359 25.4297 42.1094 25.7031L44.0234 27.6172L46.4844 25.0195L44.5703 23.2422C44.2969 22.832 44.1602 22.2852 44.5703 22.0117C45.1172 20.918 45.5273 19.8242 45.9375 18.7305C45.9375 18.3203 46.3477 17.9102 46.8945 17.9102H49.3555V14.3555H46.8945C46.3477 14.3555 45.9375 14.082 45.9375 13.6719C45.5273 12.4414 45.1172 11.3477 44.5703 10.3906C44.2969 9.98047 44.2969 9.43359 44.5703 9.16016L46.4844 7.24609L43.8867 4.78516L42.1094 6.5625C41.8359 6.97266 41.2891 6.97266 40.8789 6.83594C39.9219 6.15234 38.8281 5.74219 37.7344 5.46875C37.1875 5.33203 36.9141 4.92188 36.9141 4.375V1.91406H33.3594V4.375C33.3594 4.92188 32.9492 5.33203 32.5391 5.46875C31.4453 5.74219 30.3516 6.15234 29.2578 6.83594C28.8477 6.97266 28.4375 6.97266 28.0273 6.5625L26.25 4.78516L23.7891 7.24609L25.5664 9.16016C25.9766 9.43359 25.9766 9.84375 25.8398 10.2539C25.1562 11.4844 24.6094 12.5781 24.4727 13.6719C24.3359 14.082 23.9258 14.3555 23.3789 14.3555H20.918V18.0469H23.3789C23.9258 18.0469 24.3359 18.3203 24.4727 18.7305C24.6094 19.8242 25.1562 20.918 25.8398 22.0117C25.9766 22.4219 25.9766 22.9688 25.7031 23.2422L23.7891 25.0195L26.3867 27.6172L28.1641 25.7031C28.5742 25.4297 28.9844 25.293 29.3945 25.5664C30.4883 26.25 31.582 26.6602 32.6758 26.9336C33.0859 27.0703 33.4961 27.4805 33.4961 27.8906V30.4883H33.3594Z" fill="#3583DC"/>
</svg>
