<svg width="40" height="40" viewBox="0 0 40 40" fill="none" xmlns="http://www.w3.org/2000/svg">
<g clip-path="url(#clip0_1248_4969)">
<circle cx="20" cy="20" r="20" fill="#76499A"/>
<g clip-path="url(#clip1_1248_4969)">
<path d="M28.8125 10.339C28.2172 9.79057 25.8078 8.04213 20.436 8.01869C20.436 8.01869 14.1031 7.639 11.0188 10.4703C9.30315 12.1859 8.69846 14.7031 8.63284 17.8203C8.56721 20.9374 8.48752 26.7781 14.1172 28.3624H14.1219L14.1172 30.7812C14.1172 30.7812 14.0797 31.7609 14.7266 31.9578C15.5047 32.2015 15.9641 31.4562 16.7094 30.6546C17.1172 30.214 17.6797 29.5671 18.1063 29.0749C21.9594 29.3984 24.9172 28.6578 25.2547 28.5499C26.0328 28.2968 30.4344 27.7343 31.1469 21.8937C31.8875 15.8656 30.7906 12.0593 28.8125 10.339ZM29.4641 21.4531C28.8594 26.3281 25.2922 26.6374 24.636 26.8484C24.3547 26.9374 21.7531 27.5843 18.486 27.3734C18.486 27.3734 16.0485 30.3124 15.2891 31.0765C15.0406 31.3249 14.7688 31.3015 14.7735 30.8093C14.7735 30.4859 14.7922 26.7921 14.7922 26.7921C14.7875 26.7921 14.7875 26.7921 14.7922 26.7921C10.0203 25.4703 10.3016 20.4968 10.3531 17.8953C10.4047 15.2937 10.8969 13.1609 12.35 11.7265C14.961 9.35932 20.3375 9.71088 20.3375 9.71088C24.8797 9.72963 27.0547 11.0984 27.561 11.5578C29.2344 12.9921 30.0875 16.4234 29.4641 21.4531ZM22.9485 17.6656C22.9672 18.0687 22.3625 18.0968 22.3438 17.6937C22.2922 16.6624 21.8094 16.1609 20.8156 16.1046C20.4125 16.0812 20.45 15.4765 20.8485 15.4999C22.1563 15.5703 22.8828 16.3203 22.9485 17.6656ZM23.9 18.1953C23.9469 16.2078 22.7047 14.6515 20.3469 14.4781C19.9485 14.4499 19.9906 13.8453 20.3891 13.8734C23.1078 14.0703 24.5563 15.9406 24.5047 18.2093C24.5 18.6124 23.8906 18.5937 23.9 18.1953ZM26.1031 18.8234C26.1078 19.2265 25.4985 19.2312 25.4985 18.8281C25.4703 15.0078 22.925 12.9265 19.836 12.9031C19.4375 12.8984 19.4375 12.2984 19.836 12.2984C23.2906 12.3218 26.0703 14.7078 26.1031 18.8234ZM25.5735 23.4218V23.4312C25.0672 24.3218 24.1203 25.3062 23.1453 24.9921L23.136 24.9781C22.1469 24.7015 19.8172 23.5015 18.3453 22.3296C17.586 21.7296 16.8922 21.0218 16.3578 20.3421C15.875 19.7374 15.3875 19.0203 14.9141 18.1578C13.9156 16.3531 13.6953 15.5468 13.6953 15.5468C13.3813 14.5718 14.361 13.6249 15.2563 13.1187H15.2656C15.6969 12.8937 16.1094 12.9687 16.386 13.3015C16.386 13.3015 16.9672 13.9953 17.2156 14.3374C17.45 14.6562 17.7641 15.1671 17.9281 15.4531C18.2141 15.964 18.036 16.4843 17.7547 16.6999L17.1922 17.1499C16.9063 17.3796 16.9438 17.8062 16.9438 17.8062C16.9438 17.8062 17.7781 20.9609 20.8953 21.7578C20.8953 21.7578 21.3219 21.7953 21.5516 21.5093L22.0016 20.9468C22.2172 20.6656 22.7375 20.4874 23.2485 20.7734C23.9375 21.1624 24.8141 21.7671 25.3953 22.3156C25.7235 22.5828 25.7985 22.9906 25.5735 23.4218Z" fill="white"/>
</g>
</g>
<defs>
<clipPath id="clip0_1248_4969">
<rect width="40" height="40" fill="white"/>
</clipPath>
<clipPath id="clip1_1248_4969">
<rect width="24" height="24" fill="white" transform="translate(8 8)"/>
</clipPath>
</defs>
</svg>
