<svg width="60" height="48" viewBox="0 0 60 48" fill="none" xmlns="http://www.w3.org/2000/svg">
<path d="M58.5781 32.4447C59.3644 32.4447 60.0001 31.8086 60.0001 31.0218V23.6387C60.0001 22.8519 59.3644 22.2158 58.5781 22.2158H51.3663V16.2223C51.3663 15.4355 50.7306 14.7995 49.9442 14.7995H42.7331V8.83983C42.7331 8.05305 42.0968 7.41634 41.3104 7.41634H34.0827V1.42349C34.0827 0.636708 33.447 0 32.6607 0H15.393C14.6067 0 13.971 0.636708 13.971 1.42349V7.41634H6.76816L1.45588 7.39143C1.45588 7.39143 1.45588 7.39143 1.44759 7.39143C1.43865 7.39143 1.43035 7.39143 1.42205 7.39143C1.39716 7.39143 1.36333 7.39143 1.33844 7.39974C1.33014 7.39974 1.32185 7.39974 1.30525 7.39974C1.29695 7.39974 1.28866 7.39974 1.27972 7.39974C1.25483 7.39974 1.22994 7.40804 1.20441 7.40804C1.19611 7.40804 1.17951 7.40804 1.17122 7.41634C1.16292 7.41634 1.15462 7.42528 1.14632 7.42528C1.12079 7.43358 1.1042 7.43358 1.07931 7.44188C1.06271 7.44188 1.05441 7.45019 1.03718 7.45019C1.02888 7.45019 1.02059 7.45849 1.01229 7.45849C0.995694 7.46679 0.970163 7.47509 0.953568 7.47509C0.936973 7.4834 0.920378 7.4834 0.912081 7.4917C0.903783 7.4917 0.894847 7.5 0.88655 7.50894C0.869955 7.51724 0.85336 7.52554 0.836766 7.53385C0.820171 7.54215 0.802937 7.55045 0.79464 7.55875C0.786342 7.56706 0.778045 7.56706 0.769748 7.57536C0.753153 7.5843 0.73592 7.6009 0.719325 7.6092C0.70273 7.61751 0.694432 7.62581 0.677838 7.63411C0.66954 7.64241 0.660604 7.64241 0.652307 7.65071C0.635712 7.66796 0.619117 7.67626 0.594225 7.69286C0.585927 7.70117 0.568694 7.70947 0.560397 7.71777C0.552099 7.72607 0.552099 7.72607 0.543802 7.73437C0.527207 7.75162 0.510612 7.76822 0.485081 7.78483C0.476784 7.79313 0.468487 7.80143 0.460189 7.80973C0.451892 7.81867 0.451892 7.81867 0.443594 7.82698C0.426361 7.84358 0.409766 7.86849 0.393171 7.88509C0.384874 7.89403 0.376576 7.90233 0.368279 7.91063C0.359981 7.91894 0.359981 7.91894 0.351684 7.92724C0.334451 7.94384 0.317856 7.96875 0.301261 7.99429C0.292964 8.0026 0.284666 8.0109 0.276369 8.0192C0.267433 8.0275 0.267433 8.03581 0.259136 8.04411C0.242541 8.06135 0.234243 8.08626 0.217648 8.10286C0.209351 8.11116 0.201054 8.12841 0.201054 8.13671C0.192118 8.14501 0.192118 8.15331 0.18382 8.16161C0.175523 8.17822 0.167226 8.20312 0.158928 8.22037C0.150631 8.23697 0.142333 8.24527 0.142333 8.26188C0.134036 8.27018 0.134036 8.28742 0.125738 8.29572C0.117441 8.31233 0.108505 8.32893 0.108505 8.34554C0.100208 8.36278 0.100208 8.37108 0.0919102 8.38769C0.0836128 8.40429 0.0836128 8.41259 0.0836128 8.4292C0.0836128 8.4375 0.0753154 8.44644 0.0753154 8.45474C0.0753154 8.46304 0.0753154 8.47135 0.0670178 8.47965C0.0670178 8.49625 0.0587204 8.50456 0.0587204 8.5218C0.0587204 8.5384 0.050423 8.5467 0.050423 8.56331C0.050423 8.58821 0.0421254 8.60546 0.0421254 8.63036C0.0421254 8.63867 0.0421254 8.65527 0.0331898 8.66357V8.69742C0.0331898 8.72233 0.0331898 8.74723 0.0248924 8.78108V8.80599L0 45.8123C0 46.1891 0.150631 46.5493 0.418064 46.8169C0.686135 47.0845 1.04548 47.2352 1.42205 47.2352H58.5698C59.3561 47.2352 59.9918 46.5991 59.9918 45.8123V38.4298C59.9918 37.6424 59.3561 37.0063 58.5698 37.0063H51.358V32.4363H58.5781V32.4447ZM57.1554 29.5983H42.7331V25.0615H57.1554V29.5983ZM28.076 25.0532H39.8967V29.59H31.0873C30.1759 28.033 29.1636 26.5182 28.076 25.0532ZM15.393 10.2544H22.6048V14.7912H17.5765C15.1173 13.033 12.4902 11.5099 9.73801 10.2544H15.393ZM31.238 17.6452V22.2158H25.7668C25.5076 21.9144 25.2396 21.6213 24.9721 21.3288C23.776 20.0228 22.5039 18.8005 21.1821 17.6452H31.238ZM48.5222 22.2075H34.0827V17.6369H48.5222V22.2075ZM39.8884 14.7995H25.4489V10.2627H39.8967V14.7995H39.8884ZM16.8151 2.84635H31.238V7.41634H16.8151V2.84635ZM2.86964 10.6893C11.2105 13.2259 18.4886 18.0973 23.9764 24.5264C23.9847 24.5347 23.993 24.5513 24.0103 24.5596C25.867 26.736 27.5156 29.0797 28.9294 31.5825C28.9709 31.6745 29.013 31.7581 29.0717 31.8335C30.2927 34.0182 31.3388 36.3115 32.1832 38.6974C32.2088 38.8481 32.2586 38.9822 32.3256 39.1157C32.9198 40.8317 33.4132 42.5981 33.798 44.4061H2.84411L2.86964 10.6893ZM36.7092 44.3978C36.3996 42.8574 36.0237 41.3426 35.5718 39.861H39.8884V44.3978H36.7092ZM57.1554 44.3978H42.7331V39.8527H57.1554V44.3978ZM41.3104 37.0063H34.6093C34.0323 35.4494 33.3717 33.9263 32.6268 32.4363H48.5222V37.0063H41.3104Z" fill="#3583DC"/>
</svg>
