<svg width="199" height="60" viewBox="0 0 199 60" fill="none" xmlns="http://www.w3.org/2000/svg">
<g clip-path="url(#clip0_4606_1073)">
<g clip-path="url(#clip1_4606_1073)">
<path d="M58.5781 38.8373C59.3644 38.8373 60.0001 38.2012 60.0001 37.4144V30.0313C60.0001 29.2445 59.3644 28.6084 58.5781 28.6084H51.3663V22.6149C51.3663 21.8282 50.7306 21.1921 49.9442 21.1921H42.7331V15.2325C42.7331 14.4457 42.0968 13.809 41.3104 13.809H34.0827V7.81612C34.0827 7.02933 33.447 6.39262 32.6607 6.39262H15.393C14.6067 6.39262 13.971 7.02933 13.971 7.81612V13.809H6.76816L1.45588 13.7841C1.45588 13.7841 1.45588 13.7841 1.44759 13.7841C1.43865 13.7841 1.43035 13.7841 1.42205 13.7841C1.39716 13.7841 1.36333 13.7841 1.33844 13.7924C1.33014 13.7924 1.32185 13.7924 1.30525 13.7924C1.29695 13.7924 1.28866 13.7924 1.27972 13.7924C1.25483 13.7924 1.22994 13.8007 1.20441 13.8007C1.19611 13.8007 1.17951 13.8007 1.17122 13.809C1.16292 13.809 1.15462 13.8179 1.14632 13.8179C1.12079 13.8262 1.1042 13.8262 1.07931 13.8345C1.06271 13.8345 1.05441 13.8428 1.03718 13.8428C1.02888 13.8428 1.02059 13.8511 1.01229 13.8511C0.995693 13.8594 0.970163 13.8677 0.953568 13.8677C0.936973 13.876 0.920378 13.876 0.912081 13.8843C0.903783 13.8843 0.894847 13.8926 0.88655 13.9016C0.869955 13.9099 0.85336 13.9182 0.836766 13.9265C0.820171 13.9348 0.802937 13.9431 0.79464 13.9514C0.786342 13.9597 0.778045 13.9597 0.769748 13.968C0.753153 13.9769 0.73592 13.9935 0.719325 14.0018C0.70273 14.0101 0.694432 14.0184 0.677838 14.0267C0.66954 14.035 0.660604 14.035 0.652307 14.0433C0.635712 14.0606 0.619117 14.0689 0.594225 14.0855C0.585927 14.0938 0.568694 14.1021 0.560397 14.1104C0.552099 14.1187 0.552099 14.1187 0.543802 14.127C0.527207 14.1442 0.510612 14.1608 0.485081 14.1774C0.476784 14.1858 0.468487 14.1941 0.460189 14.2024C0.451892 14.2113 0.451892 14.2113 0.443594 14.2196C0.426361 14.2362 0.409766 14.2611 0.393171 14.2777C0.384874 14.2867 0.376576 14.295 0.368279 14.3033C0.359981 14.3116 0.359981 14.3116 0.351684 14.3199C0.334451 14.3365 0.317856 14.3614 0.301261 14.3869C0.292964 14.3952 0.284666 14.4035 0.276369 14.4118C0.267433 14.4201 0.267433 14.4284 0.259136 14.4367C0.242541 14.454 0.234243 14.4789 0.217648 14.4955C0.209351 14.5038 0.201054 14.521 0.201054 14.5293C0.192118 14.5376 0.192118 14.5459 0.18382 14.5542C0.175523 14.5708 0.167226 14.5957 0.158928 14.613C0.150631 14.6296 0.142333 14.6379 0.142333 14.6545C0.134036 14.6628 0.134036 14.68 0.125738 14.6883C0.117441 14.705 0.108505 14.7216 0.108505 14.7382C0.100208 14.7554 0.100208 14.7637 0.0919102 14.7803C0.0836128 14.7969 0.0836128 14.8052 0.0836128 14.8218C0.0836128 14.8301 0.0753154 14.8391 0.0753154 14.8474C0.0753154 14.8557 0.0753154 14.864 0.0670178 14.8723C0.0670178 14.8889 0.0587204 14.8972 0.0587204 14.9144C0.0587204 14.931 0.050423 14.9393 0.050423 14.9559C0.050423 14.9808 0.0421254 14.9981 0.0421254 15.023C0.0421254 15.0313 0.0421254 15.0479 0.0331898 15.0562V15.09C0.0331898 15.1149 0.0331898 15.1399 0.0248924 15.1737V15.1986L0 52.205C0 52.5817 0.150631 52.9419 0.418064 53.2095C0.686135 53.4771 1.04548 53.6278 1.42205 53.6278H58.5698C59.3561 53.6278 59.9918 52.9917 59.9918 52.205V44.8225C59.9918 44.035 59.3561 43.399 58.5698 43.399H51.358V38.829H58.5781V38.8373ZM57.1554 35.9909H42.7331V31.4541H57.1554V35.9909ZM28.076 31.4458H39.8967V35.9826H31.0873C30.1759 34.4257 29.1636 32.9108 28.076 31.4458ZM15.393 16.647H22.6048V21.1838H17.5765C15.1173 19.4257 12.4902 17.9025 9.73801 16.647H15.393ZM31.238 24.0378V28.6084H25.7668C25.5076 28.307 25.2396 28.0139 24.9721 27.7214C23.776 26.4154 22.5039 25.1931 21.1821 24.0378H31.238ZM48.5222 28.6001H34.0827V24.0295H48.5222V28.6001ZM39.8884 21.1921H25.4489V16.6553H39.8967V21.1921H39.8884ZM16.8151 9.23897H31.238V13.809H16.8151V9.23897ZM2.86964 17.0819C11.2105 19.6185 18.4886 24.4899 23.9764 30.919C23.9847 30.9273 23.993 30.9439 24.0103 30.9522C25.867 33.1286 27.5156 35.4724 28.9294 37.9751C28.9709 38.0671 29.013 38.1508 29.0717 38.2261C30.2927 40.4108 31.3388 42.7041 32.1832 45.09C32.2088 45.2408 32.2586 45.3749 32.3256 45.5083C32.9198 47.2243 33.4132 48.9908 33.798 50.7987H2.84411L2.86964 17.0819ZM36.7092 50.7904C36.3996 49.25 36.0237 47.7352 35.5718 46.2536H39.8884V50.7904H36.7092ZM57.1554 50.7904H42.7331V46.2453H57.1554V50.7904ZM41.3104 43.399H34.6093C34.0323 41.842 33.3717 40.3189 32.6268 38.829H48.5222V43.399H41.3104Z" fill="#4B4B4B"/>
</g>
<path d="M71.69 7.8H82.038V11.232H75.278V26H71.69V7.8ZM93.92 20.878H84.118C84.5513 22.5073 85.7733 23.322 87.784 23.322C89.0667 23.322 90.0373 22.8887 90.696 22.022L93.4 23.582C92.1173 25.4367 90.228 26.364 87.732 26.364C85.5827 26.364 83.858 25.714 82.558 24.414C81.258 23.114 80.608 21.476 80.608 19.5C80.608 17.5587 81.2493 15.9293 82.532 14.612C83.7973 13.2947 85.444 12.636 87.472 12.636C89.396 12.636 90.9647 13.2947 92.178 14.612C93.426 15.9293 94.05 17.5587 94.05 19.5C94.05 19.864 94.0067 20.3233 93.92 20.878ZM84.066 18.278H90.696C90.5053 17.4287 90.1153 16.7787 89.526 16.328C88.954 15.8773 88.2693 15.652 87.472 15.652C86.5707 15.652 85.8253 15.886 85.236 16.354C84.6467 16.8047 84.2567 17.446 84.066 18.278ZM107.366 24.388C106.049 25.7053 104.419 26.364 102.478 26.364C100.537 26.364 98.9072 25.7053 97.5899 24.388C96.2725 23.0707 95.6139 21.4413 95.6139 19.5C95.6139 17.576 96.2725 15.9553 97.5899 14.638C98.9245 13.3033 100.554 12.636 102.478 12.636C104.402 12.636 106.031 13.3033 107.366 14.638C108.701 15.9727 109.368 17.5933 109.368 19.5C109.368 21.424 108.701 23.0533 107.366 24.388ZM99.9559 22.074C100.632 22.75 101.473 23.088 102.478 23.088C103.483 23.088 104.324 22.75 105 22.074C105.676 21.398 106.014 20.54 106.014 19.5C106.014 18.46 105.676 17.602 105 16.926C104.324 16.25 103.483 15.912 102.478 15.912C101.473 15.912 100.632 16.25 99.9559 16.926C99.2972 17.6193 98.9679 18.4773 98.9679 19.5C98.9679 20.5227 99.2972 21.3807 99.9559 22.074ZM121.945 13H125.247V26H121.997V18.408L118.695 23.608H118.279L114.951 18.356V26H111.727V13H115.029L118.487 18.46L121.945 13ZM140.943 20.878H131.141C131.575 22.5073 132.797 23.322 134.807 23.322C136.09 23.322 137.061 22.8887 137.719 22.022L140.423 23.582C139.141 25.4367 137.251 26.364 134.755 26.364C132.606 26.364 130.881 25.714 129.581 24.414C128.281 23.114 127.631 21.476 127.631 19.5C127.631 17.5587 128.273 15.9293 129.555 14.612C130.821 13.2947 132.467 12.636 134.495 12.636C136.419 12.636 137.988 13.2947 139.201 14.612C140.449 15.9293 141.073 17.5587 141.073 19.5C141.073 19.864 141.03 20.3233 140.943 20.878ZM131.089 18.278H137.719C137.529 17.4287 137.139 16.7787 136.549 16.328C135.977 15.8773 135.293 15.652 134.495 15.652C133.594 15.652 132.849 15.886 132.259 16.354C131.67 16.8047 131.28 17.446 131.089 18.278ZM141.633 13H153.151V16.224H149.095V26H145.741V16.224H141.633V13ZM162.508 12.636C164.259 12.636 165.75 13.3033 166.98 14.638C168.228 15.9727 168.852 17.5933 168.852 19.5C168.852 21.4413 168.228 23.0707 166.98 24.388C165.767 25.7053 164.276 26.364 162.508 26.364C160.688 26.364 159.284 25.7313 158.296 24.466V31.2H154.942V13H158.296V14.534C159.284 13.2687 160.688 12.636 162.508 12.636ZM159.31 22.152C159.986 22.828 160.844 23.166 161.884 23.166C162.924 23.166 163.782 22.828 164.458 22.152C165.152 21.4587 165.498 20.5747 165.498 19.5C165.498 18.4253 165.152 17.55 164.458 16.874C163.782 16.1807 162.924 15.834 161.884 15.834C160.844 15.834 159.986 16.1807 159.31 16.874C158.634 17.55 158.296 18.4253 158.296 19.5C158.296 20.5747 158.634 21.4587 159.31 22.152ZM174.494 20.384L180.604 13H183.1V26H179.824V18.616L173.714 26H171.218V13H174.494V20.384ZM190.515 13H196.599V26H193.323V21.944H192.153L189.163 26H185.289L188.539 21.554C187.707 21.2073 187.039 20.6613 186.537 19.916C186.051 19.1707 185.809 18.356 185.809 17.472C185.809 16.276 186.242 15.2273 187.109 14.326C187.958 13.442 189.093 13 190.515 13ZM193.323 15.99H190.775C190.289 15.99 189.882 16.1373 189.553 16.432C189.241 16.7267 189.085 17.108 189.085 17.576C189.085 18.044 189.241 18.4167 189.553 18.694C189.882 18.9713 190.289 19.11 190.775 19.11H193.323V15.99ZM80.322 52.364C77.6007 52.364 75.3387 51.454 73.536 49.634C71.7507 47.8313 70.858 45.5867 70.858 42.9C70.858 40.196 71.7507 37.9513 73.536 36.166C75.3387 34.346 77.6007 33.436 80.322 33.436C81.9687 33.436 83.4853 33.826 84.872 34.606C86.276 35.3687 87.368 36.4087 88.148 37.726L85.054 39.52C84.6033 38.7053 83.962 38.0727 83.13 37.622C82.298 37.154 81.362 36.92 80.322 36.92C78.554 36.92 77.124 37.4747 76.032 38.584C74.9573 39.7107 74.42 41.1493 74.42 42.9C74.42 44.6333 74.9573 46.0633 76.032 47.19C77.124 48.2993 78.554 48.854 80.322 48.854C81.362 48.854 82.298 48.6287 83.13 48.178C83.9793 47.71 84.6207 47.0773 85.054 46.28L88.148 48.074C87.368 49.3913 86.276 50.44 84.872 51.22C83.4853 51.9827 81.9687 52.364 80.322 52.364ZM89.1252 39H100.643V42.224H96.5872V52H93.2332V42.224H89.1252V39ZM114.563 46.878H104.761C105.194 48.5073 106.416 49.322 108.427 49.322C109.709 49.322 110.68 48.8887 111.339 48.022L114.043 49.582C112.76 51.4367 110.871 52.364 108.375 52.364C106.225 52.364 104.501 51.714 103.201 50.414C101.901 49.114 101.251 47.476 101.251 45.5C101.251 43.5587 101.892 41.9293 103.175 40.612C104.44 39.2947 106.087 38.636 108.115 38.636C110.039 38.636 111.607 39.2947 112.821 40.612C114.069 41.9293 114.693 43.5587 114.693 45.5C114.693 45.864 114.649 46.3233 114.563 46.878ZM104.709 44.278H111.339C111.148 43.4287 110.758 42.7787 110.169 42.328C109.597 41.8773 108.912 41.652 108.115 41.652C107.213 41.652 106.468 41.886 105.879 42.354C105.289 42.8047 104.899 43.446 104.709 44.278ZM125.562 43.914V39H128.916V52H125.562V47.06H120.388V52H117.034V39H120.388V43.914H125.562Z" fill="#4B4B4B"/>
</g>
<defs>
<clipPath id="clip0_4606_1073">
<rect width="199" height="60" fill="white"/>
</clipPath>
<clipPath id="clip1_4606_1073">
<rect width="60" height="60" fill="white"/>
</clipPath>
</defs>
</svg>
